<?xml version="1.0" encoding="UTF-8" standalone="no"?>
<!-- Created with Inkscape (http://www.inkscape.org/) -->

<svg
   xmlns:dc="http://purl.org/dc/elements/1.1/"
   xmlns:cc="http://creativecommons.org/ns#"
   xmlns:rdf="http://www.w3.org/1999/02/22-rdf-syntax-ns#"
   xmlns:svg="http://www.w3.org/2000/svg"
   xmlns="http://www.w3.org/2000/svg"
   xmlns:sodipodi="http://sodipodi.sourceforge.net/DTD/sodipodi-0.dtd"
   xmlns:inkscape="http://www.inkscape.org/namespaces/inkscape"
   version="1.1"
   width="691.98389"
   height="88.238182"
   id="svg4596"
   inkscape:version="0.48.4 r9939"
   sodipodi:docname="availableoncovarep.svg">
  <sodipodi:namedview
     pagecolor="#ffffff"
     bordercolor="#666666"
     borderopacity="1"
     objecttolerance="10"
     gridtolerance="10"
     guidetolerance="10"
     inkscape:pageopacity="0"
     inkscape:pageshadow="2"
     inkscape:window-width="1559"
     inkscape:window-height="876"
     id="namedview15"
     showgrid="false"
     inkscape:zoom="1.1935259"
     inkscape:cx="352.04344"
     inkscape:cy="-78.774056"
     inkscape:window-x="41"
     inkscape:window-y="24"
     inkscape:window-maximized="1"
     inkscape:current-layer="svg4596" />
  <defs
     id="defs4598" />
  <metadata
     id="metadata4601">
    <rdf:RDF>
      <cc:Work
         rdf:about="">
        <dc:format>image/svg+xml</dc:format>
        <dc:type
           rdf:resource="http://purl.org/dc/dcmitype/StillImage" />
        <dc:title />
      </cc:Work>
    </rdf:RDF>
  </metadata>
  <g
     style="font-size:31.10629082px;font-style:normal;font-weight:normal;fill:#00000c;fill-opacity:1;stroke:none;font-family:Bitstream Vera Sans"
     id="text11038">
    <path
       d="m 12.084102,70.026121 c -0.124425,0 -0.217744,0 -0.311063,0 -1.24425,0 -1.7730586,0.186638 -1.7730586,1.057614 0,0.715444 0.4043826,1.08872 1.2131456,1.08872 l 4.043818,0 c 0.902081,0 1.213145,-0.217745 1.213145,-1.08872 0,-0.839869 -0.404383,-1.088721 -1.461996,-1.088721 -0.186637,0 -0.404382,0.03111 -0.653232,0.03111 l 0,-6.314577 c 0,-2.270757 2.11523,-3.639436 3.950499,-3.639436 1.990801,0 3.203948,1.213147 3.203948,3.639436 l 0,6.314577 c -0.279956,0 -0.435488,0 -0.591019,0 -1.08872,0 -1.493102,0.217745 -1.493102,1.057614 0,0.870975 0.311063,1.08872 1.213145,1.08872 l 4.043818,0 c 0.808762,0 1.213145,-0.373276 1.213145,-1.08872 0,-0.777657 -0.466595,-1.057614 -1.430889,-1.057614 -0.217744,0 -0.435489,0 -0.653232,0 l 0,-6.874491 c 0,-3.515007 -2.084125,-5.412494 -4.977007,-5.412494 -1.586419,0 -2.986205,0.68434 -4.4482,2.053015 l 0,-6.87449 c 0,-0.373275 -0.279957,-0.622126 -0.870976,-0.622126 l -2.301865,0 c -0.808763,0 -1.2131456,0.373276 -1.2131456,1.08872 0,0.777657 0.4354886,1.057614 1.3997836,1.057614 0.217743,0 0.466594,0.03111 0.684338,0.03111 l 0,15.553146"
       style="fill:#00000c;font-family:Courier 10 Pitch;-inkscape-font-specification:Courier 10 Pitch"
       id="path3100" />
    <path
       d="m 40.657174,58.983388 -5.972408,0 0,-3.079523 c 0,-1.493101 -0.124426,-2.115228 -1.213146,-2.115228 -0.808762,0 -1.182039,0.435489 -1.182039,1.275358 0,0.404381 0,0.684338 0,0.808763 l 0,3.11063 -1.679739,0 c -1.461994,0 -2.084122,0.09332 -2.084122,1.08872 0,0.74655 0.373277,1.057614 1.213146,1.057614 l 2.550715,0 0,5.070325 c 0,0.155531 0,0.311063 0,0.466594 0,1.399782 0.03111,2.61293 0.559914,3.515011 0.870975,1.524207 2.488505,2.270759 4.821475,2.270759 1.430888,0 3.017312,-0.404382 4.914794,-1.150932 1.119825,-0.435488 1.679739,-0.870977 1.679739,-1.586421 0,-0.559913 -0.497701,-1.08872 -1.057613,-1.08872 -1.213145,0 -3.235057,1.617527 -5.692452,1.617527 -2.675138,0 -2.861778,-1.61753 -2.861778,-4.043818 l 0,-5.070325 6.159045,0 c 0.839869,0 1.275358,-0.34217 1.275358,-1.057614 0,-0.777657 -0.466595,-1.08872 -1.430889,-1.08872"
       style="fill:#00000c;font-family:Courier 10 Pitch;-inkscape-font-specification:Courier 10 Pitch"
       id="path3102" />
    <path
       d="m 59.369551,58.983388 -5.972408,0 0,-3.079523 c 0,-1.493101 -0.124426,-2.115228 -1.213145,-2.115228 -0.808763,0 -1.182039,0.435489 -1.182039,1.275358 0,0.404381 0,0.684338 0,0.808763 l 0,3.11063 -1.67974,0 c -1.461994,0 -2.084121,0.09332 -2.084121,1.08872 0,0.74655 0.373276,1.057614 1.213145,1.057614 l 2.550716,0 0,5.070325 c 0,0.155531 0,0.311063 0,0.466594 0,1.399782 0.03111,2.61293 0.559913,3.515011 0.870975,1.524207 2.488506,2.270759 4.821475,2.270759 1.430888,0 3.017312,-0.404382 4.914794,-1.150932 1.119826,-0.435488 1.67974,-0.870977 1.67974,-1.586421 0,-0.559913 -0.497701,-1.08872 -1.057614,-1.08872 -1.213144,0 -3.235057,1.617527 -5.692451,1.617527 -2.675138,0 -2.861779,-1.61753 -2.861779,-4.043818 l 0,-5.070325 6.159046,0 c 0.839869,0 1.275358,-0.34217 1.275358,-1.057614 0,-0.777657 -0.466596,-1.08872 -1.43089,-1.08872"
       style="fill:#00000c;font-family:Courier 10 Pitch;-inkscape-font-specification:Courier 10 Pitch"
       id="path3104" />
    <path
       d="m 74.722447,69.963908 c -2.830669,0 -4.790368,-2.021911 -4.790368,-4.759262 0,-2.737351 1.959699,-4.759263 4.790368,-4.759263 2.861776,0 4.821476,2.021912 4.821476,4.759263 0,2.830669 -2.021912,4.759262 -4.821476,4.759262 m -4.728156,6.096833 0,-6.065727 c 1.244251,1.430888 3.110631,2.208547 5.256963,2.208547 3.981602,0 6.905597,-2.79957 6.905597,-6.843384 0,-4.261557 -3.172846,-7.247766 -7.154447,-7.247766 -1.928588,0 -3.608331,0.715446 -4.977006,2.115228 l 0,-1.461996 c 0,-0.435487 -0.279958,-0.622125 -0.870977,-0.622125 l -2.332971,0 c -0.808763,0 -1.213146,0.34217 -1.213146,1.057614 0,0.777656 0.466596,1.08872 1.43089,1.08872 0.217743,0 0.466594,0 0.684338,0 l 0,15.770889 c -0.09332,0 -0.186638,0 -0.279957,0 -1.275356,0 -1.835271,0.217745 -1.835271,1.08872 0,0.715444 0.404383,1.088721 1.213146,1.088721 l 6.718958,0 c 0.902082,0 1.275358,-0.248852 1.275358,-1.088721 0,-0.715444 -0.373276,-1.08872 -1.150932,-1.08872 l -3.670543,0"
       style="fill:#00000c;font-family:Courier 10 Pitch;-inkscape-font-specification:Courier 10 Pitch"
       id="path3106" />
    <path
       d="m 89.670966,69.683952 c 0,1.555313 1.182041,2.706247 2.986204,2.706247 1.804163,0 2.986204,-1.119828 2.986204,-2.706247 0,-1.58642 -1.182041,-2.706248 -2.986204,-2.706248 -1.804163,0 -2.986204,1.150935 -2.986204,2.706248 m 0,-8.398699 c 0,1.555313 1.182041,2.706247 2.986204,2.706247 1.804163,0 2.986204,-1.119828 2.986204,-2.706247 0,-1.586419 -1.182041,-2.706247 -2.986204,-2.706247 -1.804163,0 -2.986204,1.150934 -2.986204,2.706247"
       style="fill:#00000c;font-family:Courier 10 Pitch;-inkscape-font-specification:Courier 10 Pitch"
       id="path3108" />
    <path
       d="m 107.94786,72.576837 9.54963,-20.561259 c 0.0933,-0.186637 0.15553,-0.373275 0.15553,-0.559913 0,-0.591019 -0.52881,-1.026507 -1.08872,-1.026507 -0.62213,0 -0.93319,0.435489 -1.36868,1.33757 l -9.48742,20.436833 c -0.0933,0.217744 -0.15553,0.435488 -0.15553,0.622126 0,0.591019 0.4977,1.057614 1.05762,1.057614 0.65323,0 0.96429,-0.466595 1.33757,-1.306464"
       style="fill:#00000c;font-family:Courier 10 Pitch;-inkscape-font-specification:Courier 10 Pitch"
       id="path3110" />
    <path
       d="m 126.66023,72.576837 9.54963,-20.561259 c 0.0933,-0.186637 0.15553,-0.373275 0.15553,-0.559913 0,-0.591019 -0.52881,-1.026507 -1.08872,-1.026507 -0.62212,0 -0.93319,0.435489 -1.36868,1.33757 l -9.48741,20.436833 c -0.0933,0.217744 -0.15554,0.435488 -0.15554,0.622126 0,0.591019 0.49771,1.057614 1.05762,1.057614 0.65323,0 0.96429,-0.466595 1.33757,-1.306464"
       style="fill:#00000c;font-family:Courier 10 Pitch;-inkscape-font-specification:Courier 10 Pitch"
       id="path3112" />
    <path
       d="m 155.63769,62.716142 0,-2.830672 c 0,-1.306463 -0.15553,-1.866377 -1.08872,-1.866377 -0.77765,0 -1.18204,0.279957 -1.18204,0.964295 0,0 0,0.03111 0,0.06221 -1.67974,-0.839869 -3.20395,-1.275358 -4.79037,-1.275358 -4.35487,0 -7.65214,3.203952 -7.65214,7.403297 0,4.199345 3.26616,7.372191 7.68325,7.372191 3.67054,0 7.09223,-2.27076 7.09223,-3.701648 0,-0.622125 -0.43548,-1.057614 -1.05761,-1.057614 -0.80876,0 -1.39978,0.746551 -2.33297,1.368677 -1.08872,0.715444 -2.33297,1.119826 -3.54612,1.119826 -3.17284,0 -5.19475,-2.115231 -5.19475,-5.132538 0,-2.923988 2.17744,-5.008113 5.31918,-5.008113 1.80416,0 3.23505,0.839872 4.16824,2.488504 0.46659,0.839869 0.77766,1.213145 1.43089,1.213145 0.74655,0 1.15093,-0.373276 1.15093,-1.119827"
       style="fill:#00000c;font-family:Courier 10 Pitch;-inkscape-font-specification:Courier 10 Pitch"
       id="path3114" />
    <path
       d="m 175.43878,65.173539 c 0,-4.199345 -3.11063,-7.372191 -7.9321,-7.372191 -4.82147,0 -7.96321,3.14174 -7.96321,7.372191 0,4.230452 3.14174,7.372191 7.96321,7.372191 4.82147,0 7.9321,-3.141739 7.9321,-7.372191 m -7.9321,5.256964 c -3.14173,0 -5.31918,-2.239656 -5.31918,-5.256964 0,-3.017307 2.17745,-5.288069 5.31918,-5.288069 3.14173,0 5.31918,2.270762 5.31918,5.288069 0,3.048414 -2.17745,5.256964 -5.31918,5.256964"
       style="fill:#00000c;font-family:Courier 10 Pitch;-inkscape-font-specification:Courier 10 Pitch"
       id="path3116" />
    <path
       d="m 179.25124,60.289852 4.97701,11.073839 c 0.40438,0.933188 0.74655,1.337571 1.77306,1.337571 1.08872,0 1.39978,-0.373277 1.83527,-1.337571 l 5.00811,-11.073839 c 0.0933,0 0.18664,0 0.27996,0 1.21314,0 1.74195,-0.217745 1.74195,-1.08872 0,-0.715444 -0.40438,-1.057614 -1.21314,-1.057614 l -4.69705,0 c -0.99541,0 -1.43089,0.155532 -1.43089,1.057614 0,0.902081 0.55991,1.119826 1.9908,1.119826 0.27995,0 0.55991,-0.03111 0.90208,-0.03111 l -4.38599,9.829588 -3.9505,-9.829588 c 0.18664,0 0.37328,0 0.55992,0 1.24425,0 1.77306,-0.217745 1.77306,-1.08872 0,-0.902082 -0.43549,-1.057614 -1.43089,-1.057614 l -4.26156,0 c -0.80877,0 -1.21315,0.34217 -1.21315,1.057614 0,0.870975 0.4977,1.08872 1.74195,1.08872"
       style="fill:#00000c;font-family:Courier 10 Pitch;-inkscape-font-specification:Courier 10 Pitch"
       id="path3118" />
    <path
       d="m 208.38424,70.243865 0.15553,0.933189 c 0.12442,0.653231 0.4977,0.995401 1.05761,0.995401 l 2.39519,0 c 0.80876,0 1.21314,-0.373276 1.21314,-1.08872 0,-0.902082 -0.52881,-1.057614 -1.80416,-1.057614 l -0.77766,0 0,-6.874491 c 0,-3.670538 -1.80417,-5.381388 -5.69245,-5.381388 -3.42169,0 -5.66135,1.088721 -5.66135,2.146334 0,0.777657 0.4666,1.275358 1.02651,1.275358 1.18204,0 2.42629,-1.275358 4.57263,-1.275358 2.33297,0 3.42169,1.088723 3.42169,3.421692 0,0.03111 0,0.06221 0,0.09332 -1.24425,-0.311062 -2.42629,-0.466594 -3.60833,-0.466594 -4.51041,0 -7.03002,1.897487 -7.03002,5.039219 0,2.675138 1.9908,4.541518 5.03922,4.541518 2.08412,0 4.04382,-0.808765 5.69245,-2.301865 m -0.0933,-4.790369 0,1.648633 c 0,1.368676 -2.48851,3.11063 -5.22586,3.11063 -1.77306,0 -2.9862,-1.026509 -2.9862,-2.364079 0,-1.710844 1.77306,-2.923991 5.00811,-2.923991 1.11983,0 2.17744,0.186638 3.20395,0.528807"
       style="fill:#00000c;font-family:Courier 10 Pitch;-inkscape-font-specification:Courier 10 Pitch"
       id="path3120" />
    <path
       d="m 222.15071,70.026121 0,-6.283471 c 2.02191,-2.301863 3.73276,-3.515011 5.41249,-3.515011 1.18204,0 1.83528,0.933189 2.64404,0.933189 0.65323,0 1.33757,-0.684339 1.33757,-1.430889 0,-1.119826 -1.11983,-1.959697 -3.01731,-1.959697 -2.42629,0 -4.47931,1.182042 -6.37679,3.577224 l 0,-2.581823 c 0,-0.435487 -0.27996,-0.622125 -0.83987,-0.622125 l -3.4528,0 c -0.80876,0 -1.21314,0.34217 -1.21314,1.057614 0,0.777656 0.43548,1.08872 1.43088,1.08872 0.15554,0 0.43549,0 0.77766,0 l 1.02651,0 0,9.736269 -2.67514,0 c -0.83987,0 -1.27536,0.34217 -1.27536,1.057614 0,0.715444 0.43549,1.08872 1.24425,1.08872 l 9.92291,0 c 0.90208,0 1.24425,-0.217745 1.24425,-1.08872 0,-0.746551 -0.37328,-1.057614 -1.15093,-1.057614 l -5.03922,0"
       style="fill:#00000c;font-family:Courier 10 Pitch;-inkscape-font-specification:Courier 10 Pitch"
       id="path3122" />
    <path
       d="m 237.28586,63.835969 c 0.59102,-2.519607 2.55072,-4.012712 5.22585,-4.012712 2.4574,0 4.38599,1.586424 4.66595,4.012712 l -9.8918,0 m -0.0622,1.990803 10.20287,0 c 1.86637,0 2.51961,-2e-6 2.51961,-1.43089 0,-3.390582 -2.83068,-6.656746 -7.43441,-6.656746 -4.69704,0 -7.9321,3.017314 -7.9321,7.372191 0,4.541514 2.924,7.434403 7.62104,7.434403 2.05301,0 4.26156,-0.497701 6.34568,-1.524208 0.90209,-0.435488 1.33757,-0.902083 1.33757,-1.524208 0,-0.559913 -0.46659,-0.995401 -1.05761,-0.995401 -1.36867,0 -3.32838,1.897483 -6.4079,1.897483 -3.14173,0 -5.03921,-1.648636 -5.19475,-4.572624"
       style="fill:#00000c;font-family:Courier 10 Pitch;-inkscape-font-specification:Courier 10 Pitch"
       id="path3124" />
    <path
       d="m 261.84623,69.963908 c -2.83067,0 -4.79037,-2.021911 -4.79037,-4.759262 0,-2.737351 1.9597,-4.759263 4.79037,-4.759263 2.86177,0 4.82147,2.021912 4.82147,4.759263 0,2.830669 -2.02191,4.759262 -4.82147,4.759262 m -4.72816,6.096833 0,-6.065727 c 1.24425,1.430888 3.11063,2.208547 5.25696,2.208547 3.9816,0 6.9056,-2.79957 6.9056,-6.843384 0,-4.261557 -3.17285,-7.247766 -7.15445,-7.247766 -1.92858,0 -3.60833,0.715446 -4.977,2.115228 l 0,-1.461996 c 0,-0.435487 -0.27996,-0.622125 -0.87098,-0.622125 l -2.33297,0 c -0.80876,0 -1.21315,0.34217 -1.21315,1.057614 0,0.777656 0.4666,1.08872 1.43089,1.08872 0.21775,0 0.4666,0 0.68434,0 l 0,15.770889 c -0.0933,0 -0.18664,0 -0.27996,0 -1.27535,0 -1.83527,0.217745 -1.83527,1.08872 0,0.715444 0.40439,1.088721 1.21315,1.088721 l 6.71896,0 c 0.90208,0 1.27536,-0.248852 1.27536,-1.088721 0,-0.715444 -0.37328,-1.08872 -1.15094,-1.08872 l -3.67054,0"
       style="fill:#00000c;font-family:Courier 10 Pitch;-inkscape-font-specification:Courier 10 Pitch"
       id="path3126" />
    <path
       d="m 276.79475,69.683952 c 0,1.555313 1.18204,2.706247 2.98621,2.706247 1.80416,0 2.9862,-1.119828 2.9862,-2.706247 0,-1.58642 -1.18204,-2.706248 -2.9862,-2.706248 -1.80417,0 -2.98621,1.150935 -2.98621,2.706248"
       style="fill:#00000c;font-family:Courier 10 Pitch;-inkscape-font-specification:Courier 10 Pitch"
       id="path3128" />
    <path
       d="m 304.65237,71.363691 0,-11.073839 c 0.0933,0 0.18664,0 0.27996,0 1.27536,0 1.80417,-0.217745 1.80417,-1.08872 0,-0.715444 -0.40439,-1.057614 -1.21315,-1.057614 l -2.30187,0 c -0.59101,0 -0.87097,0.186638 -0.87097,0.622125 l 0,1.088721 c -1.462,-1.150932 -2.92399,-1.741953 -4.47931,-1.741953 -3.67054,0 -6.68785,2.768464 -6.68785,6.687853 0,3.981601 2.79957,6.750065 6.56343,6.750065 1.95969,0 3.39058,-0.653234 4.63483,-2.084121 l 0,1.835271 c 0,3.141732 -0.96429,4.572624 -4.13713,4.572624 -0.80876,0 -1.64864,-0.217744 -2.55072,-0.217744 -0.71544,0 -1.30646,0.559914 -1.30646,1.182039 0,0.995401 1.08872,1.399784 3.32837,1.399784 2.83067,0 4.88369,-0.839872 6.00352,-2.301866 0.90208,-1.182038 0.93318,-2.519611 0.93318,-4.230456 0,-0.124425 0,-0.217744 0,-0.342169 m -6.59453,-10.98052 c 2.67514,0 4.51041,1.86638 4.51041,4.417093 0,2.581819 -1.86638,4.417093 -4.51041,4.417093 -2.67514,0 -4.51041,-1.86638 -4.51041,-4.417093 0,-2.612926 1.86638,-4.417093 4.51041,-4.417093"
       style="fill:#00000c;font-family:Courier 10 Pitch;-inkscape-font-specification:Courier 10 Pitch"
       id="path3130" />
    <path
       d="m 318.60548,70.026121 0,-11.260478 c 0,-0.373275 -0.27995,-0.622125 -0.87097,-0.622125 l -4.4482,0 c -0.80877,0 -1.21315,0.34217 -1.21315,1.057614 0,0.715444 0.43549,1.08872 1.27536,1.08872 l 2.9551,0 0,9.736269 -4.63484,0 c -0.83987,0 -1.27536,0.34217 -1.27536,1.057614 0,0.715444 0.40439,1.08872 1.21315,1.08872 l 11.78928,0 c 0.90208,0 1.24425,-0.217745 1.24425,-1.08872 0,-0.746551 -0.37327,-1.057614 -1.15093,-1.057614 l -4.88369,0 m -2.83067,-16.26859 c 0,1.24425 0.31107,1.493102 1.58642,1.493102 1.462,0 1.55532,-0.342171 1.55532,-1.92859 0,-1.58642 -0.15554,-2.053016 -1.55532,-2.053016 -1.39978,0 -1.58642,0.466597 -1.58642,2.488504"
       style="fill:#00000c;font-family:Courier 10 Pitch;-inkscape-font-specification:Courier 10 Pitch"
       id="path3132" />
    <path
       d="m 340.05521,58.983388 -5.97241,0 0,-3.079523 c 0,-1.493101 -0.12443,-2.115228 -1.21314,-2.115228 -0.80877,0 -1.18204,0.435489 -1.18204,1.275358 0,0.404381 0,0.684338 0,0.808763 l 0,3.11063 -1.67974,0 c -1.462,0 -2.08412,0.09332 -2.08412,1.08872 0,0.74655 0.37327,1.057614 1.21314,1.057614 l 2.55072,0 0,5.070325 c 0,0.155531 0,0.311063 0,0.466594 0,1.399782 0.0311,2.61293 0.55991,3.515011 0.87097,1.524207 2.48851,2.270759 4.82147,2.270759 1.43089,0 3.01732,-0.404382 4.9148,-1.150932 1.11982,-0.435488 1.67974,-0.870977 1.67974,-1.586421 0,-0.559913 -0.4977,-1.08872 -1.05762,-1.08872 -1.21314,0 -3.23505,1.617527 -5.69245,1.617527 -2.67513,0 -2.86178,-1.61753 -2.86178,-4.043818 l 0,-5.070325 6.15905,0 c 0.83987,0 1.27536,-0.34217 1.27536,-1.057614 0,-0.777657 -0.4666,-1.08872 -1.43089,-1.08872"
       style="fill:#00000c;font-family:Courier 10 Pitch;-inkscape-font-specification:Courier 10 Pitch"
       id="path3134" />
    <path
       d="m 348.90689,70.026121 c -0.12443,0 -0.21775,0 -0.31107,0 -1.24425,0 -1.77306,0.186638 -1.77306,1.057614 0,0.715444 0.40439,1.08872 1.21315,1.08872 l 4.04382,0 c 0.90208,0 1.21314,-0.217745 1.21314,-1.08872 0,-0.839869 -0.40438,-1.088721 -1.46199,-1.088721 -0.18664,0 -0.40438,0.03111 -0.65323,0.03111 l 0,-6.314577 c 0,-2.270757 2.11523,-3.639436 3.95049,-3.639436 1.99081,0 3.20395,1.213147 3.20395,3.639436 l 0,6.314577 c -0.27995,0 -0.43549,0 -0.59102,0 -1.08872,0 -1.4931,0.217745 -1.4931,1.057614 0,0.870975 0.31106,1.08872 1.21315,1.08872 l 4.04381,0 c 0.80877,0 1.21315,-0.373276 1.21315,-1.08872 0,-0.777657 -0.4666,-1.057614 -1.43089,-1.057614 -0.21774,0 -0.43549,0 -0.65323,0 l 0,-6.874491 c 0,-3.515007 -2.08413,-5.412494 -4.97701,-5.412494 -1.58642,0 -2.9862,0.68434 -4.4482,2.053015 l 0,-6.87449 c 0,-0.373275 -0.27996,-0.622126 -0.87097,-0.622126 l -2.30187,0 c -0.80876,0 -1.21315,0.373276 -1.21315,1.08872 0,0.777657 0.43549,1.057614 1.39979,1.057614 0.21774,0 0.46659,0.03111 0.68434,0.03111 l 0,15.553146"
       style="fill:#00000c;font-family:Courier 10 Pitch;-inkscape-font-specification:Courier 10 Pitch"
       id="path3136" />
    <path
       d="m 369.48567,66.573322 0,-7.278872 c 0,-0.06221 0,-0.09332 0,-0.155531 0,-0.684338 -0.0311,-0.995401 -0.87098,-0.995401 l -2.30187,0 c -0.80876,0 -1.21314,0.34217 -1.21314,1.057614 0,0.777656 0.43549,1.08872 1.39978,1.08872 0.21775,0 0.4666,0 0.68434,0 l 0,6.843384 c 0,3.546113 1.67974,5.350282 5.00811,5.350282 1.83527,0 3.14174,-0.715446 4.72816,-1.959697 l 0,1.026508 c 0,0.373275 0.27996,0.622126 0.87098,0.622126 l 2.30186,0 c 0.80876,0 1.21315,-0.373276 1.21315,-1.08872 0,-0.777657 -0.43549,-1.057614 -1.39979,-1.057614 -0.21774,0 -0.46659,0 -0.68433,0 l 0,-10.420608 c 0,-0.902081 -1e-5,-1.461995 -1.05762,-1.461995 l -3.23505,0 c -0.83987,0 -1.21315,0.311063 -1.21315,1.057614 0,0.74655 0.31107,1.08872 1.11983,1.08872 l 2.08412,0 0,6.28347 c 0,2.239651 -1.9597,3.670543 -4.01271,3.670543 -2.36408,0 -3.42169,-1.182042 -3.42169,-3.670543"
       style="fill:#00000c;font-family:Courier 10 Pitch;-inkscape-font-specification:Courier 10 Pitch"
       id="path3138" />
    <path
       d="m 388.13583,60.320958 0,-7.403297 c 0,-0.435488 -0.27996,-0.622126 -0.87098,-0.622126 l -2.30187,0 c -0.80876,0 -1.21314,0.373276 -1.21314,1.08872 0,0.777657 0.43549,1.057614 1.39978,1.057614 0.21775,0 0.4666,0.03111 0.68434,0.03111 l 0,15.553146 c -0.12443,0 -0.21774,0 -0.31106,0 -1.24425,0 -1.77306,0.186638 -1.77306,1.057614 0,0.715444 0.40438,1.08872 1.21314,1.08872 l 2.76846,0 c 0.4666,0 0.62213,-0.248851 0.62213,-0.777657 l 0,-1.213146 c 1.02651,1.524207 2.61293,2.270759 4.72816,2.270759 4.07492,0 7.18555,-3.203951 7.18555,-7.154446 0,-4.012708 -3.04842,-7.154447 -7.12334,-7.154447 -2.14633,0 -3.85718,0.746552 -5.00811,2.17744 m 4.72815,9.736269 c -2.83067,0 -4.79037,-2.053018 -4.79037,-4.852581 0,-2.83067 1.99081,-4.852582 4.79037,-4.852582 2.83067,0 4.79037,2.084125 4.79037,4.852582 0,2.892882 -1.9597,4.852581 -4.79037,4.852581"
       style="fill:#00000c;font-family:Courier 10 Pitch;-inkscape-font-specification:Courier 10 Pitch"
       id="path3140" />
    <path
       d="m 407.78139,69.683952 c 0,1.555313 1.18204,2.706247 2.9862,2.706247 1.80416,0 2.9862,-1.119828 2.9862,-2.706247 0,-1.58642 -1.18204,-2.706248 -2.9862,-2.706248 -1.80416,0 -2.9862,1.150935 -2.9862,2.706248"
       style="fill:#00000c;font-family:Courier 10 Pitch;-inkscape-font-specification:Courier 10 Pitch"
       id="path3142" />
    <path
       d="m 430.87974,70.026121 0,-11.260478 c 0,-0.373275 -0.27995,-0.622125 -0.87097,-0.622125 l -4.4482,0 c -0.80876,0 -1.21315,0.34217 -1.21315,1.057614 0,0.715444 0.43549,1.08872 1.27536,1.08872 l 2.9551,0 0,9.736269 -4.63484,0 c -0.83987,0 -1.27536,0.34217 -1.27536,1.057614 0,0.715444 0.40439,1.08872 1.21315,1.08872 l 11.78928,0 c 0.90209,0 1.24426,-0.217745 1.24426,-1.08872 0,-0.746551 -0.37328,-1.057614 -1.15094,-1.057614 l -4.88369,0 m -2.83067,-16.26859 c 0,1.24425 0.31107,1.493102 1.58642,1.493102 1.462,0 1.55532,-0.342171 1.55532,-1.92859 0,-1.58642 -0.15554,-2.053016 -1.55532,-2.053016 -1.39978,0 -1.58642,0.466597 -1.58642,2.488504"
       style="fill:#00000c;font-family:Courier 10 Pitch;-inkscape-font-specification:Courier 10 Pitch"
       id="path3144" />
    <path
       d="m 456.12444,65.173539 c 0,-4.199345 -3.11064,-7.372191 -7.93211,-7.372191 -4.82147,0 -7.96321,3.14174 -7.96321,7.372191 0,4.230452 3.14174,7.372191 7.96321,7.372191 4.82147,0 7.93211,-3.141739 7.93211,-7.372191 m -7.93211,5.256964 c -3.14173,0 -5.31917,-2.239656 -5.31917,-5.256964 0,-3.017307 2.17744,-5.288069 5.31917,-5.288069 3.14174,0 5.31918,2.270762 5.31918,5.288069 0,3.048414 -2.17744,5.256964 -5.31918,5.256964"
       style="fill:#00000c;font-family:Courier 10 Pitch;-inkscape-font-specification:Courier 10 Pitch"
       id="path3146" />
    <path
       d="m 463.48301,72.576837 9.54963,-20.561259 c 0.0933,-0.186637 0.15554,-0.373275 0.15554,-0.559913 0,-0.591019 -0.52881,-1.026507 -1.08872,-1.026507 -0.62213,0 -0.93319,0.435489 -1.36868,1.33757 l -9.48742,20.436833 c -0.0933,0.217744 -0.15553,0.435488 -0.15553,0.622126 0,0.591019 0.4977,1.057614 1.05761,1.057614 0.65323,0 0.9643,-0.466595 1.33757,-1.306464"
       style="fill:#00000c;font-family:Courier 10 Pitch;-inkscape-font-specification:Courier 10 Pitch"
       id="path3148" />
    <path
       d="m 492.46049,62.716142 0,-2.830672 c 0,-1.306463 -0.15553,-1.866377 -1.08872,-1.866377 -0.77766,0 -1.18204,0.279957 -1.18204,0.964295 0,0 0,0.03111 0,0.06221 -1.67974,-0.839869 -3.20395,-1.275358 -4.79037,-1.275358 -4.35487,0 -7.65214,3.203952 -7.65214,7.403297 0,4.199345 3.26616,7.372191 7.68325,7.372191 3.67054,0 7.09223,-2.27076 7.09223,-3.701648 0,-0.622125 -0.43548,-1.057614 -1.05761,-1.057614 -0.80876,0 -1.39978,0.746551 -2.33297,1.368677 -1.08872,0.715444 -2.33297,1.119826 -3.54612,1.119826 -3.17284,0 -5.19475,-2.115231 -5.19475,-5.132538 0,-2.923988 2.17744,-5.008113 5.31918,-5.008113 1.80416,0 3.23505,0.839872 4.16824,2.488504 0.46659,0.839869 0.77766,1.213145 1.43089,1.213145 0.74655,0 1.15093,-0.373276 1.15093,-1.119827"
       style="fill:#00000c;font-family:Courier 10 Pitch;-inkscape-font-specification:Courier 10 Pitch"
       id="path3150" />
    <path
       d="m 512.26158,65.173539 c 0,-4.199345 -3.11063,-7.372191 -7.9321,-7.372191 -4.82147,0 -7.96321,3.14174 -7.96321,7.372191 0,4.230452 3.14174,7.372191 7.96321,7.372191 4.82147,0 7.9321,-3.141739 7.9321,-7.372191 m -7.9321,5.256964 c -3.14173,0 -5.31918,-2.239656 -5.31918,-5.256964 0,-3.017307 2.17745,-5.288069 5.31918,-5.288069 3.14173,0 5.31918,2.270762 5.31918,5.288069 0,3.048414 -2.17745,5.256964 -5.31918,5.256964"
       style="fill:#00000c;font-family:Courier 10 Pitch;-inkscape-font-specification:Courier 10 Pitch"
       id="path3152" />
    <path
       d="m 516.07404,60.289852 4.97701,11.073839 c 0.40438,0.933188 0.74655,1.337571 1.77306,1.337571 1.08872,0 1.39978,-0.373277 1.83527,-1.337571 l 5.00811,-11.073839 c 0.0933,0 0.18664,0 0.27996,0 1.21314,0 1.74195,-0.217745 1.74195,-1.08872 0,-0.715444 -0.40438,-1.057614 -1.21315,-1.057614 l -4.69705,0 c -0.9954,0 -1.43088,0.155532 -1.43088,1.057614 0,0.902081 0.55991,1.119826 1.9908,1.119826 0.27995,0 0.55991,-0.03111 0.90208,-0.03111 l -4.38599,9.829588 -3.9505,-9.829588 c 0.18664,0 0.37328,0 0.55992,0 1.24425,0 1.77306,-0.217745 1.77306,-1.08872 0,-0.902082 -0.43549,-1.057614 -1.43089,-1.057614 l -4.26156,0 c -0.80877,0 -1.21315,0.34217 -1.21315,1.057614 0,0.870975 0.4977,1.08872 1.74195,1.08872"
       style="fill:#00000c;font-family:Courier 10 Pitch;-inkscape-font-specification:Courier 10 Pitch"
       id="path3154" />
    <path
       d="m 545.20705,70.243865 0.15553,0.933189 c 0.12443,0.653231 0.4977,0.995401 1.05762,0.995401 l 2.39518,0 c 0.80876,0 1.21315,-0.373276 1.21315,-1.08872 0,-0.902082 -0.52881,-1.057614 -1.80417,-1.057614 l -0.77766,0 0,-6.874491 c 0,-3.670538 -1.80416,-5.381388 -5.69245,-5.381388 -3.42168,0 -5.66134,1.088721 -5.66134,2.146334 0,0.777657 0.46659,1.275358 1.02651,1.275358 1.18203,0 2.42629,-1.275358 4.57262,-1.275358 2.33297,0 3.42169,1.088723 3.42169,3.421692 0,0.03111 0,0.06221 0,0.09332 -1.24425,-0.311062 -2.42629,-0.466594 -3.60833,-0.466594 -4.5104,0 -7.03002,1.897487 -7.03002,5.039219 0,2.675138 1.99081,4.541518 5.03922,4.541518 2.08412,0 4.04382,-0.808765 5.69245,-2.301865 m -0.0933,-4.790369 0,1.648633 c 0,1.368676 -2.4885,3.11063 -5.22585,3.11063 -1.77306,0 -2.98621,-1.026509 -2.98621,-2.364079 0,-1.710844 1.77306,-2.923991 5.00812,-2.923991 1.11982,0 2.17744,0.186638 3.20394,0.528807"
       style="fill:#00000c;font-family:Courier 10 Pitch;-inkscape-font-specification:Courier 10 Pitch"
       id="path3156" />
    <path
       d="m 558.97349,70.026121 0,-6.283471 c 2.02191,-2.301863 3.73276,-3.515011 5.4125,-3.515011 1.18204,0 1.83527,0.933189 2.64403,0.933189 0.65323,0 1.33757,-0.684339 1.33757,-1.430889 0,-1.119826 -1.11983,-1.959697 -3.01731,-1.959697 -2.42629,0 -4.47931,1.182042 -6.37679,3.577224 l 0,-2.581823 c 0,-0.435487 -0.27995,-0.622125 -0.83987,-0.622125 l -3.4528,0 c -0.80876,0 -1.21314,0.34217 -1.21314,1.057614 0,0.777656 0.43549,1.08872 1.43089,1.08872 0.15553,0 0.43549,0 0.77766,0 l 1.0265,0 0,9.736269 -2.67514,0 c -0.83987,0 -1.27536,0.34217 -1.27536,1.057614 0,0.715444 0.43549,1.08872 1.24426,1.08872 l 9.9229,0 c 0.90208,0 1.24425,-0.217745 1.24425,-1.08872 0,-0.746551 -0.37327,-1.057614 -1.15093,-1.057614 l -5.03922,0"
       style="fill:#00000c;font-family:Courier 10 Pitch;-inkscape-font-specification:Courier 10 Pitch"
       id="path3158" />
    <path
       d="m 574.10867,63.835969 c 0.59102,-2.519607 2.55072,-4.012712 5.22586,-4.012712 2.45739,0 4.38599,1.586424 4.66594,4.012712 l -9.8918,0 m -0.0622,1.990803 10.20286,0 c 1.86638,0 2.51961,-2e-6 2.51961,-1.43089 0,-3.390582 -2.83067,-6.656746 -7.4344,-6.656746 -4.69705,0 -7.93211,3.017314 -7.93211,7.372191 0,4.541514 2.924,7.434403 7.62105,7.434403 2.05301,0 4.26156,-0.497701 6.34568,-1.524208 0.90208,-0.435488 1.33757,-0.902083 1.33757,-1.524208 0,-0.559913 -0.4666,-0.995401 -1.05761,-0.995401 -1.36868,0 -3.32838,1.897483 -6.4079,1.897483 -3.14173,0 -5.03922,-1.648636 -5.19475,-4.572624"
       style="fill:#00000c;font-family:Courier 10 Pitch;-inkscape-font-specification:Courier 10 Pitch"
       id="path3160" />
    <path
       d="m 598.669,69.963908 c -2.83067,0 -4.79037,-2.021911 -4.79037,-4.759262 0,-2.737351 1.9597,-4.759263 4.79037,-4.759263 2.86177,0 4.82147,2.021912 4.82147,4.759263 0,2.830669 -2.02191,4.759262 -4.82147,4.759262 m -4.72816,6.096833 0,-6.065727 c 1.24425,1.430888 3.11063,2.208547 5.25696,2.208547 3.9816,0 6.9056,-2.79957 6.9056,-6.843384 0,-4.261557 -3.17285,-7.247766 -7.15445,-7.247766 -1.92859,0 -3.60833,0.715446 -4.977,2.115228 l 0,-1.461996 c 0,-0.435487 -0.27996,-0.622125 -0.87098,-0.622125 l -2.33297,0 c -0.80876,0 -1.21315,0.34217 -1.21315,1.057614 0,0.777656 0.4666,1.08872 1.43089,1.08872 0.21775,0 0.4666,0 0.68434,0 l 0,15.770889 c -0.0933,0 -0.18664,0 -0.27996,0 -1.27535,0 -1.83527,0.217745 -1.83527,1.08872 0,0.715444 0.40439,1.088721 1.21315,1.088721 l 6.71896,0 c 0.90208,0 1.27535,-0.248852 1.27535,-1.088721 0,-0.715444 -0.37327,-1.08872 -1.15093,-1.08872 l -3.67054,0"
       style="fill:#00000c;font-family:Courier 10 Pitch;-inkscape-font-specification:Courier 10 Pitch"
       id="path3162" />
  </g>
  <g
     style="font-size:40.04777527px;font-style:normal;font-weight:normal;fill:#00000c;fill-opacity:1;stroke:none;font-family:Bitstream Vera Sans"
     id="text11042">
    <path
       d="m 10.565095,31.067907 1.271048,0 0.68441,3.539379 c 0.247687,0.312876 0.593151,0.612713 1.036393,0.89951 0.443231,0.273767 0.932095,0.521458 1.466593,0.743074 0.547521,0.208584 1.121121,0.378057 1.720803,0.508419 0.599664,0.117329 1.186301,0.175992 1.759912,0.175991 0.990754,10e-7 1.851154,-0.130362 2.581204,-0.391091 0.730024,-0.273763 1.329697,-0.645299 1.799021,-1.114611 0.482331,-0.469307 0.840831,-1.023353 1.075502,-1.662139 0.234639,-0.638778 0.351966,-1.336224 0.351983,-2.09234 -1.7e-5,-0.938612 -0.202081,-1.714277 -0.606192,-2.326995 -0.391107,-0.612701 -0.912562,-1.127637 -1.564366,-1.544812 -0.638797,-0.430189 -1.368834,-0.78869 -2.190113,-1.075501 -0.821304,-0.299825 -1.668668,-0.599662 -2.542095,-0.899511 -0.86041,-0.299824 -1.701256,-0.632252 -2.522541,-0.997283 -0.821298,-0.365005 -1.557853,-0.827797 -2.209667,-1.388375 -0.638787,-0.56055 -1.160242,-1.251477 -1.564366,-2.072786 -0.391095,-0.834311 -0.58664,-1.857666 -0.586638,-3.070068 -2e-6,-1.016818 0.195543,-1.935882 0.586638,-2.757196 0.391088,-0.834305 0.964688,-1.538269 1.720803,-2.111894 0.756104,-0.586612 1.681687,-1.036367 2.77675,-1.349266 1.108083,-0.312847 2.366093,-0.469283 3.774033,-0.46931 1.290589,2.7e-5 2.516008,0.08476 3.676261,0.25421 1.160222,0.169499 2.229204,0.365044 3.20695,0.586637 l 0,5.455727 -1.271047,0 -0.68441,-3.206951 c -0.573617,-0.41714 -1.277581,-0.762604 -2.111895,-1.036392 -0.834342,-0.27374 -1.772961,-0.410622 -2.815859,-0.410646 -0.964703,2.4e-5 -1.799031,0.104315 -2.502986,0.312873 -0.690937,0.208606 -1.264537,0.495407 -1.720803,0.860401 -0.45628,0.352006 -0.795226,0.775688 -1.016838,1.271048 -0.221624,0.482368 -0.332434,1.003823 -0.332428,1.564366 -6e-6,0.847385 0.19554,1.551349 0.586638,2.111894 0.404121,0.560583 0.925576,1.042929 1.564366,1.447039 0.65181,0.391109 1.388365,0.730054 2.209667,1.016838 0.834318,0.286817 1.681682,0.586653 2.542095,0.899511 0.873424,0.299852 1.720789,0.645316 2.542095,1.036392 0.834313,0.37807 1.570868,0.866934 2.209668,1.466594 0.651801,0.586649 1.173256,1.310168 1.564366,2.170558 0.404108,0.847375 0.606172,1.896803 0.606192,3.148287 -2e-5,1.21239 -0.189047,2.307445 -0.567083,3.285169 -0.365038,0.977732 -0.925602,1.818578 -1.681694,2.522541 -0.74309,0.690929 -1.681709,1.22542 -2.815859,1.603475 -1.121142,0.365018 -2.444334,0.547528 -3.969579,0.547528 -0.808266,0 -1.603485,-0.03911 -2.385659,-0.117327 -0.78219,-0.07822 -1.518745,-0.18251 -2.209667,-0.312874 -0.690934,-0.130363 -1.329716,-0.280282 -1.916348,-0.449755 -0.586641,-0.169472 -1.09506,-0.338945 -1.525258,-0.508419 l 0,-6.061919"
       style="fill:#00000c;font-family:Liberation Serif;-inkscape-font-specification:Liberation Serif"
       id="path3041" />
    <path
       d="m 48.637859,28.838685 c -1.9e-5,3.115702 -0.697464,5.507877 -2.09234,7.17653 -1.394908,1.668658 -3.565464,2.502986 -6.511674,2.502986 -2.763721,0 -4.849541,-0.82781 -6.257465,-2.483431 -1.407932,-1.655617 -2.111896,-4.05431 -2.111895,-7.196085 -10e-7,-3.102647 0.703963,-5.475267 2.111895,-7.117866 1.407924,-1.642567 3.545889,-2.463858 6.413901,-2.463877 2.789774,1.9e-5 4.895148,0.808274 6.316129,2.424768 1.420948,1.60349 2.13143,3.989146 2.131449,7.156975 m -3.519824,0 c -1.5e-5,-1.264519 -0.08475,-2.392165 -0.25421,-3.382942 -0.169487,-1.003788 -0.456287,-1.844634 -0.860401,-2.52254 -0.391105,-0.690913 -0.91256,-1.212368 -1.564366,-1.564367 -0.651831,-0.365001 -1.453568,-0.54751 -2.405213,-0.547528 -0.964702,1.8e-5 -1.75992,0.182527 -2.385659,0.547528 -0.625753,0.351999 -1.121135,0.873454 -1.486148,1.564367 -0.365024,0.677906 -0.619233,1.518752 -0.762628,2.52254 -0.143406,0.990777 -0.215106,2.118423 -0.215101,3.382942 -5e-6,1.277574 0.07169,2.418256 0.215101,3.422051 0.143395,1.003807 0.397604,1.857689 0.762628,2.56165 0.365013,0.690931 0.860395,1.225422 1.486148,1.603475 0.625739,0.36502 1.420957,0.54753 2.385659,0.547528 0.951645,2e-6 1.753382,-0.182508 2.405213,-0.547528 0.651806,-0.378053 1.173261,-0.912544 1.564366,-1.603475 0.404114,-0.703961 0.690914,-1.557843 0.860401,-2.56165 0.169459,-1.003795 0.254195,-2.144477 0.25421,-3.422051"
       style="fill:#00000c;font-family:Liberation Serif;-inkscape-font-specification:Liberation Serif"
       id="path3043" />
    <path
       d="m 56.283701,32.886483 c -6e-6,1.082024 0.241166,1.916352 0.723519,2.502986 0.495375,0.573603 1.297112,0.860403 2.405213,0.860401 0.730028,2e-6 1.486137,-0.04563 2.268331,-0.136882 0.782171,-0.104289 1.538281,-0.260725 2.268331,-0.46931 l 0,-14.529051 -2.77675,-0.488865 0,-0.879956 6.003256,0 0,17.012483 2.326994,0.488865 0,0.879956 -5.357954,0 -0.156437,-1.486148 c -0.378068,0.208583 -0.827823,0.423683 -1.349265,0.645301 -0.521468,0.221619 -1.068995,0.423683 -1.642585,0.606192 -0.560575,0.182509 -1.127657,0.332427 -1.701248,0.449755 -0.57361,0.117327 -1.095065,0.175991 -1.564367,0.175991 -0.703971,0 -1.342753,-0.09777 -1.916348,-0.293319 -0.573606,-0.195545 -1.068988,-0.508418 -1.486148,-0.938619 -0.404132,-0.4302 -0.723523,-0.984246 -0.958174,-1.662139 -0.221622,-0.690926 -0.332431,-1.525253 -0.332428,-2.502986 l 0,-12.006511 -2.34655,-0.488865 0,-0.879956 5.59261,0 0,13.140677"
       style="fill:#00000c;font-family:Liberation Serif;-inkscape-font-specification:Liberation Serif"
       id="path3045" />
    <path
       d="m 83.171245,19.256942 0,4.966863 -0.840847,0 -1.134165,-2.151004 c -0.36503,1.6e-5 -0.756121,0.02609 -1.173275,0.07822 -0.417174,0.05216 -0.834338,0.123862 -1.251493,0.215101 -0.417172,0.07823 -0.8213,0.176007 -1.212384,0.293319 -0.378062,0.117342 -0.710489,0.241188 -0.997283,0.371536 l 0,13.727314 3.148287,0.488865 0,0.879956 -8.721342,0 0,-0.879956 2.326995,-0.488865 0,-15.643662 -2.326995,-0.488865 0,-0.879956 5.357955,0 0.175991,2.287886 c 0.29983,-0.247675 0.710476,-0.527957 1.231938,-0.840847 0.521447,-0.325892 1.082011,-0.632247 1.681694,-0.919065 0.6127,-0.286782 1.218891,-0.527955 1.818576,-0.723519 0.612698,-0.195527 1.153707,-0.2933 1.623029,-0.293319 l 0.293319,0"
       style="fill:#00000c;font-family:Liberation Serif;-inkscape-font-specification:Liberation Serif"
       id="path3047" />
    <path
       d="m 100.10551,37.012499 c -0.338966,0.247692 -0.743093,0.46931 -1.212387,0.664855 -0.469325,0.18251 -0.971226,0.332428 -1.505703,0.449756 -0.534505,0.130363 -1.095069,0.228136 -1.681694,0.293318 -0.573612,0.06518 -1.134176,0.09777 -1.681693,0.09777 -1.590448,0 -2.952749,-0.2151 -4.086907,-0.645301 -1.121134,-0.443236 -2.040199,-1.082019 -2.757196,-1.916349 -0.717004,-0.834325 -1.244977,-1.851162 -1.58392,-3.050514 -0.338948,-1.212377 -0.508421,-2.581196 -0.508419,-4.106461 -2e-6,-1.668646 0.215098,-3.102647 0.645301,-4.302007 0.443234,-1.212369 1.055944,-2.203133 1.83813,-2.972296 0.782178,-0.782166 1.707761,-1.355766 2.77675,-1.720803 1.082012,-0.365 2.261804,-0.547509 3.539379,-0.547528 1.055935,1.9e-5 2.079291,0.0652 3.070068,0.195546 0.990751,0.117346 1.890261,0.254228 2.698532,0.410646 l 0,5.123299 -1.075502,0 -0.840847,-3.24606 c -0.482359,-0.273747 -1.068996,-0.495365 -1.759912,-0.664855 -0.677903,-0.169456 -1.388386,-0.254192 -2.131449,-0.25421 -0.847374,1.8e-5 -1.596965,0.156454 -2.248776,0.46931 -0.63879,0.299853 -1.186318,0.775681 -1.642584,1.427484 -0.443244,0.651834 -0.782189,1.479644 -1.016839,2.483432 -0.221623,1.003813 -0.332432,2.203159 -0.332427,3.598042 -5e-6,1.173283 0.09777,2.235747 0.293318,3.187396 0.195541,0.938625 0.541004,1.740362 1.036393,2.405213 0.495376,0.664859 1.160231,1.179796 1.994567,1.544812 0.847356,0.36502 1.916338,0.54753 3.206951,0.547528 0.443225,2e-6 0.89298,-0.01303 1.349265,-0.03911 0.469297,-0.03911 0.919052,-0.08474 1.349266,-0.136882 0.443223,-0.06518 0.853868,-0.13688 1.231939,-0.215101 0.391075,-0.07822 0.736539,-0.162952 1.036396,-0.254209 l 0,1.173275"
       style="fill:#00000c;font-family:Liberation Serif;-inkscape-font-specification:Liberation Serif"
       id="path3049" />
    <path
       d="m 106.40208,28.877794 0,0.351983 c -1e-5,0.951664 0.0652,1.86421 0.19554,2.737641 0.1434,0.873443 0.41716,1.649107 0.8213,2.326994 0.41715,0.664859 0.99727,1.19935 1.74035,1.603476 0.74307,0.391093 1.7208,0.586639 2.93319,0.586637 0.39108,2e-6 0.80173,-0.01303 1.23194,-0.03911 0.43019,-0.03911 0.86039,-0.08474 1.2906,-0.136882 0.43019,-0.05214 0.84735,-0.110808 1.25149,-0.175991 0.40412,-0.06518 0.77565,-0.13688 1.11461,-0.215101 l 0,1.095057 c -0.29985,0.195546 -0.66487,0.384574 -1.09505,0.567082 -0.41718,0.169474 -0.87997,0.32591 -1.38838,0.46931 -0.50843,0.1434 -1.04944,0.25421 -1.62303,0.332428 -0.57361,0.09125 -1.15373,0.136882 -1.74035,0.136882 -1.52527,0 -2.81587,-0.208582 -3.87181,-0.625746 -1.04292,-0.417164 -1.89028,-1.036392 -2.5421,-1.857685 -0.65182,-0.82129 -1.12113,-1.838127 -1.40793,-3.050514 -0.2868,-1.212378 -0.4302,-2.60727 -0.4302,-4.18468 0,-3.206938 0.67138,-5.599113 2.01413,-7.17653 1.34274,-1.577385 3.25908,-2.366085 5.74904,-2.366104 0.97772,1.9e-5 1.89027,0.130383 2.73764,0.391092 0.86039,0.260745 1.60998,0.697464 2.24878,1.310156 0.63877,0.612727 1.14067,1.434018 1.5057,2.463877 0.37804,1.029888 0.56707,2.313971 0.56708,3.852252 l 0,1.603475 -11.30254,0 m 4.24334,-8.056486 c -0.73004,1.8e-5 -1.36231,0.156454 -1.89679,0.46931 -0.52146,0.299853 -0.95818,0.730054 -1.31016,1.290602 -0.33895,0.56058 -0.59316,1.244989 -0.76263,2.053231 -0.15644,0.795232 -0.23466,1.688224 -0.23465,2.678977 l 7.86094,0 c -2e-5,-0.990753 -0.0587,-1.883745 -0.17599,-2.678977 -0.10431,-0.808242 -0.29985,-1.492651 -0.58664,-2.053231 -0.27378,-0.560548 -0.64531,-0.990749 -1.11461,-1.290602 -0.46932,-0.312856 -1.06248,-0.469292 -1.77947,-0.46931"
       style="fill:#00000c;font-family:Liberation Serif;-inkscape-font-specification:Liberation Serif"
       id="path3051" />
    <path
       d="m 120.5596,30.187951 0,-2.99185 10.40303,0 0,2.99185 -10.40303,0"
       style="fill:#00000c;font-family:Liberation Serif;-inkscape-font-specification:Liberation Serif"
       id="path3053" />
    <path
       d="m 148.99195,37.012499 c -0.33896,0.247692 -0.74309,0.46931 -1.21238,0.664855 -0.46933,0.18251 -0.97123,0.332428 -1.50571,0.449756 -0.5345,0.130363 -1.09506,0.228136 -1.68169,0.293318 -0.57361,0.06518 -1.13418,0.09777 -1.68169,0.09777 -1.59045,0 -2.95275,-0.2151 -4.08691,-0.645301 -1.12113,-0.443236 -2.0402,-1.082019 -2.7572,-1.916349 -0.717,-0.834325 -1.24497,-1.851162 -1.58392,-3.050514 -0.33894,-1.212377 -0.50842,-2.581196 -0.50842,-4.106461 0,-1.668646 0.2151,-3.102647 0.64531,-4.302007 0.44323,-1.212369 1.05594,-2.203133 1.83813,-2.972296 0.78217,-0.782166 1.70776,-1.355766 2.77675,-1.720803 1.08201,-0.365 2.2618,-0.547509 3.53937,-0.547528 1.05594,1.9e-5 2.0793,0.0652 3.07007,0.195546 0.99075,0.117346 1.89026,0.254228 2.69854,0.410646 l 0,5.123299 -1.07551,0 -0.84084,-3.24606 c -0.48236,-0.273747 -1.069,-0.495365 -1.75992,-0.664855 -0.6779,-0.169456 -1.38838,-0.254192 -2.13144,-0.25421 -0.84738,1.8e-5 -1.59697,0.156454 -2.24878,0.46931 -0.63879,0.299853 -1.18632,0.775681 -1.64259,1.427484 -0.44324,0.651834 -0.78218,1.479644 -1.01683,2.483432 -0.22163,1.003813 -0.33244,2.203159 -0.33243,3.598042 -1e-5,1.173283 0.0978,2.235747 0.29332,3.187396 0.19554,0.938625 0.541,1.740362 1.03639,2.405213 0.49538,0.664859 1.16023,1.179796 1.99457,1.544812 0.84735,0.36502 1.91634,0.54753 3.20695,0.547528 0.44322,2e-6 0.89298,-0.01303 1.34926,-0.03911 0.4693,-0.03911 0.91905,-0.08474 1.34927,-0.136882 0.44322,-0.06518 0.85387,-0.13688 1.23194,-0.215101 0.39107,-0.07822 0.73654,-0.162952 1.03639,-0.254209 l 0,1.173275"
       style="fill:#00000c;font-family:Liberation Serif;-inkscape-font-specification:Liberation Serif"
       id="path3055" />
    <path
       d="m 168.70297,28.838685 c -2e-5,3.115702 -0.69746,5.507877 -2.09234,7.17653 -1.39491,1.668658 -3.56546,2.502986 -6.51167,2.502986 -2.76372,0 -4.84954,-0.82781 -6.25747,-2.483431 -1.40793,-1.655617 -2.11189,-4.05431 -2.11189,-7.196085 0,-3.102647 0.70396,-5.475267 2.11189,-7.117866 1.40793,-1.642567 3.54589,-2.463858 6.4139,-2.463877 2.78978,1.9e-5 4.89515,0.808274 6.31613,2.424768 1.42095,1.60349 2.13143,3.989146 2.13145,7.156975 m -3.51982,0 c -2e-5,-1.264519 -0.0848,-2.392165 -0.25421,-3.382942 -0.16949,-1.003788 -0.45629,-1.844634 -0.8604,-2.52254 -0.39111,-0.690913 -0.91256,-1.212368 -1.56437,-1.564367 -0.65183,-0.365001 -1.45357,-0.54751 -2.40521,-0.547528 -0.96471,1.8e-5 -1.75992,0.182527 -2.38566,0.547528 -0.62576,0.351999 -1.12114,0.873454 -1.48615,1.564367 -0.36502,0.677906 -0.61923,1.518752 -0.76263,2.52254 -0.1434,0.990777 -0.2151,2.118423 -0.2151,3.382942 0,1.277574 0.0717,2.418256 0.2151,3.422051 0.1434,1.003807 0.39761,1.857689 0.76263,2.56165 0.36501,0.690931 0.86039,1.225422 1.48615,1.603475 0.62574,0.36502 1.42095,0.54753 2.38566,0.547528 0.95164,2e-6 1.75338,-0.182508 2.40521,-0.547528 0.65181,-0.378053 1.17326,-0.912544 1.56437,-1.603475 0.40411,-0.703961 0.69091,-1.557843 0.8604,-2.56165 0.16945,-1.003795 0.25419,-2.144477 0.25421,-3.422051"
       style="fill:#00000c;font-family:Liberation Serif;-inkscape-font-specification:Liberation Serif"
       id="path3057" />
    <path
       d="m 184.36618,36.758289 c -0.57362,0.456274 -1.29062,0.86692 -2.151,1.231938 -0.84738,0.351983 -1.85118,0.527974 -3.01141,0.527974 -5.01901,0 -7.52851,-3.135248 -7.52851,-9.405752 0,-1.525246 0.16295,-2.894065 0.48886,-4.106461 0.33895,-1.225406 0.85388,-2.261798 1.54481,-3.109178 0.69093,-0.860384 1.56437,-1.512203 2.62032,-1.955458 1.05594,-0.456255 2.30743,-0.684391 3.75448,-0.68441 0.66484,1.9e-5 1.36881,0.03913 2.11189,0.117327 0.7561,0.07824 1.47962,0.189047 2.17056,0.332428 -0.0261,-0.143381 -0.0456,-0.351963 -0.0587,-0.625746 -0.0131,-0.286781 -0.0261,-0.586618 -0.0391,-0.899511 -2e-5,-0.325889 -0.007,-0.64528 -0.0196,-0.958174 -1e-5,-0.312852 -1e-5,-0.567061 0,-0.762629 l 0,-4.771317 -3.08962,-0.469309 0,-0.879956 6.33568,0 0,26.418234 2.26833,0.488865 0,0.879956 -5.16241,0 -0.23465,-1.368821 m -9.1711,-7.64584 c 0,1.368828 0.11732,2.522547 0.35198,3.46116 0.24769,0.938625 0.59315,1.701253 1.0364,2.287886 0.44323,0.573604 0.97772,0.990768 1.60347,1.251493 0.62574,0.247693 1.32319,0.371539 2.09234,0.371537 0.78217,2e-6 1.51873,-0.0717 2.20967,-0.2151 0.69092,-0.156435 1.27755,-0.338944 1.75991,-0.547529 l 0,-14.529051 c -0.54754,-0.104274 -1.1798,-0.182492 -1.89679,-0.234655 -0.71701,-0.06516 -1.40794,-0.09775 -2.07279,-0.09777 -1.73385,1.8e-5 -3.01793,0.697464 -3.85225,2.09234 -0.8213,1.394907 -1.23194,3.448136 -1.23194,6.159692"
       style="fill:#00000c;font-family:Liberation Serif;-inkscape-font-specification:Liberation Serif"
       id="path3059" />
    <path
       d="m 195.3363,28.877794 0,0.351983 c 0,0.951664 0.0652,1.86421 0.19555,2.737641 0.1434,0.873443 0.41716,1.649107 0.82129,2.326994 0.41716,0.664859 0.99728,1.19935 1.74036,1.603476 0.74307,0.391093 1.72079,0.586639 2.93319,0.586637 0.39108,2e-6 0.80172,-0.01303 1.23194,-0.03911 0.43018,-0.03911 0.86038,-0.08474 1.2906,-0.136882 0.43018,-0.05214 0.84735,-0.110808 1.25149,-0.175991 0.40411,-0.06518 0.77565,-0.13688 1.11461,-0.215101 l 0,1.095057 c -0.29985,0.195546 -0.66487,0.384574 -1.09505,0.567082 -0.41718,0.169474 -0.87997,0.32591 -1.38838,0.46931 -0.50843,0.1434 -1.04944,0.25421 -1.62303,0.332428 -0.57361,0.09125 -1.15373,0.136882 -1.74036,0.136882 -1.52526,0 -2.81586,-0.208582 -3.8718,-0.625746 -1.04292,-0.417164 -1.89028,-1.036392 -2.5421,-1.857685 -0.65182,-0.82129 -1.12113,-1.838127 -1.40793,-3.050514 -0.2868,-1.212378 -0.4302,-2.60727 -0.4302,-4.18468 0,-3.206938 0.67137,-5.599113 2.01412,-7.17653 1.34275,-1.577385 3.25909,-2.366085 5.74905,-2.366104 0.97772,1.9e-5 1.89026,0.130383 2.73764,0.391092 0.86039,0.260745 1.60998,0.697464 2.24878,1.310156 0.63876,0.612727 1.14066,1.434018 1.5057,2.463877 0.37804,1.029888 0.56706,2.313971 0.56708,3.852252 l 0,1.603475 -11.30255,0 m 4.24335,-8.056486 c -0.73005,1.8e-5 -1.36231,0.156454 -1.8968,0.46931 -0.52146,0.299853 -0.95818,0.730054 -1.31015,1.290602 -0.33895,0.56058 -0.59316,1.244989 -0.76263,2.053231 -0.15644,0.795232 -0.23466,1.688224 -0.23466,2.678977 l 7.86094,0 c -10e-6,-0.990753 -0.0587,-1.883745 -0.17599,-2.678977 -0.1043,-0.808242 -0.29985,-1.492651 -0.58663,-2.053231 -0.27378,-0.560548 -0.64532,-0.990749 -1.11462,-1.290602 -0.46932,-0.312856 -1.06247,-0.469292 -1.77946,-0.46931"
       style="fill:#00000c;font-family:Liberation Serif;-inkscape-font-specification:Liberation Serif"
       id="path3061" />
    <path
       d="m 227.1125,19.33516 c 0.83431,1.9e-5 1.60998,0.07824 2.32699,0.234655 0.71699,0.156455 1.33622,0.423701 1.85768,0.801738 0.52145,0.378072 0.92557,0.893009 1.21239,1.544812 0.29982,0.638798 0.44974,1.447053 0.44975,2.424767 l 0,12.417157 2.28789,0.488865 0,0.879956 -5.04508,0 -0.37154,-1.838131 c -0.19556,0.195548 -0.4628,0.423684 -0.80174,0.68441 -0.32592,0.260729 -0.72353,0.50842 -1.19283,0.743074 -0.46931,0.221619 -1.01684,0.410647 -1.64258,0.567083 -0.61272,0.156436 -1.29713,0.234655 -2.05323,0.234655 -0.88648,0 -1.63607,-0.136882 -2.24878,-0.410646 -0.59967,-0.273764 -1.08202,-0.651819 -1.44704,-1.134166 -0.36502,-0.495381 -0.62574,-1.075499 -0.78218,-1.740357 -0.15644,-0.677888 -0.23466,-1.407925 -0.23465,-2.190113 -1e-5,-0.80825 0.0978,-1.505696 0.29331,-2.09234 0.19555,-0.599665 0.46931,-1.101566 0.8213,-1.505702 0.35198,-0.404119 0.76262,-0.730028 1.23194,-0.977729 0.48234,-0.260718 0.99727,-0.462781 1.54481,-0.606192 0.56056,-0.14339 1.14719,-0.241162 1.75991,-0.293318 0.62574,-0.05213 1.25148,-0.08473 1.87724,-0.09777 l 2.75719,-0.07822 0,-2.874523 c -10e-6,-0.547514 -0.0456,-1.042896 -0.13688,-1.486148 -0.0913,-0.456257 -0.2477,-0.847349 -0.46931,-1.173274 -0.20859,-0.325893 -0.49539,-0.580102 -0.8604,-0.762629 -0.36503,-0.182492 -0.8213,-0.273746 -1.36882,-0.273764 -0.62575,1.8e-5 -1.25802,0.08475 -1.89679,0.25421 -0.63879,0.16949 -1.19936,0.391108 -1.6817,0.664855 l -0.66485,2.287886 -1.09506,0 0,-4.008688 c 0.84736,-0.182492 1.7208,-0.338928 2.62031,-0.46931 0.91254,-0.143382 1.89679,-0.215082 2.95275,-0.215101 m 2.60075,9.425307 -2.56165,0.07822 c -0.76915,0.02608 -1.43401,0.1043 -1.99456,0.234655 -0.56057,0.117336 -1.02336,0.325918 -1.38838,0.625747 -0.36502,0.299844 -0.63879,0.71049 -0.82129,1.231938 -0.18251,0.521462 -0.27377,1.186317 -0.27376,1.994567 -1e-5,2.294407 0.93209,3.441607 2.7963,3.441606 0.88647,10e-7 1.64909,-0.09777 2.28789,-0.293319 0.65181,-0.20858 1.30362,-0.469307 1.95545,-0.782183 l 0,-6.531229"
       style="fill:#00000c;font-family:Liberation Serif;-inkscape-font-specification:Liberation Serif"
       id="path3063" />
    <path
       d="m 254.03915,21.036409 -7.37208,17.481792 -1.44704,0 -7.56762,-17.403574 -1.87724,-0.488865 0,-0.879956 8.56491,0 0,0.879956 -2.91364,0.527974 5.35796,12.690921 5.1233,-12.73003 -2.91363,-0.488865 0,-0.879956 6.80499,0 0,0.879956 -1.75991,0.410647"
       style="fill:#00000c;font-family:Liberation Serif;-inkscape-font-specification:Liberation Serif"
       id="path3065" />
    <path
       d="m 264.89193,19.33516 c 0.83432,1.9e-5 1.60998,0.07824 2.32699,0.234655 0.71699,0.156455 1.33622,0.423701 1.85769,0.801738 0.52144,0.378072 0.92557,0.893009 1.21238,1.544812 0.29983,0.638798 0.44974,1.447053 0.44976,2.424767 l 0,12.417157 2.28788,0.488865 0,0.879956 -5.04508,0 -0.37153,-1.838131 c -0.19556,0.195548 -0.46281,0.423684 -0.80174,0.68441 -0.32592,0.260729 -0.72353,0.50842 -1.19283,0.743074 -0.46932,0.221619 -1.01685,0.410647 -1.64259,0.567083 -0.61271,0.156436 -1.29712,0.234655 -2.05323,0.234655 -0.88648,0 -1.63607,-0.136882 -2.24877,-0.410646 -0.59968,-0.273764 -1.08203,-0.651819 -1.44704,-1.134166 -0.36502,-0.495381 -0.62575,-1.075499 -0.78218,-1.740357 -0.15644,-0.677888 -0.23466,-1.407925 -0.23466,-2.190113 0,-0.80825 0.0978,-1.505696 0.29332,-2.09234 0.19554,-0.599665 0.46931,-1.101566 0.82129,-1.505702 0.35198,-0.404119 0.76263,-0.730028 1.23194,-0.977729 0.48234,-0.260718 0.99728,-0.462781 1.54481,-0.606192 0.56056,-0.14339 1.1472,-0.241162 1.75991,-0.293318 0.62574,-0.05213 1.25149,-0.08473 1.87724,-0.09777 l 2.7572,-0.07822 0,-2.874523 c -10e-6,-0.547514 -0.0456,-1.042896 -0.13688,-1.486148 -0.0913,-0.456257 -0.24771,-0.847349 -0.46931,-1.173274 -0.2086,-0.325893 -0.4954,-0.580102 -0.86041,-0.762629 -0.36502,-0.182492 -0.8213,-0.273746 -1.36882,-0.273764 -0.62575,1.8e-5 -1.25801,0.08475 -1.89679,0.25421 -0.63879,0.16949 -1.19935,0.391108 -1.68169,0.664855 l -0.66486,2.287886 -1.09506,0 0,-4.008688 c 0.84737,-0.182492 1.7208,-0.338928 2.62032,-0.46931 0.91254,-0.143382 1.89678,-0.215082 2.95274,-0.215101 m 2.60076,9.425307 -2.56165,0.07822 c -0.76916,0.02608 -1.43401,0.1043 -1.99457,0.234655 -0.56057,0.117336 -1.02336,0.325918 -1.38837,0.625747 -0.36503,0.299844 -0.63879,0.71049 -0.8213,1.231938 -0.18251,0.521462 -0.27376,1.186317 -0.27376,1.994567 0,2.294407 0.9321,3.441607 2.7963,3.441606 0.88647,10e-7 1.6491,-0.09777 2.28789,-0.293319 0.65181,-0.20858 1.30363,-0.469307 1.95546,-0.782183 l 0,-6.531229"
       style="fill:#00000c;font-family:Liberation Serif;-inkscape-font-specification:Liberation Serif"
       id="path3067" />
    <path
       d="m 280.96581,13.742551 c -10e-6,0.286825 -0.0587,0.560588 -0.176,0.821292 -0.10429,0.247715 -0.25421,0.469333 -0.44975,0.664856 -0.19555,0.195568 -0.42369,0.352005 -0.68441,0.46931 -0.26074,0.104313 -0.5345,0.156459 -0.82129,0.156436 -0.28681,2.3e-5 -0.56057,-0.05212 -0.8213,-0.156436 -0.24769,-0.117305 -0.46931,-0.273742 -0.66485,-0.46931 -0.19555,-0.195523 -0.35199,-0.417141 -0.46931,-0.664856 -0.1043,-0.260704 -0.15644,-0.534467 -0.15644,-0.821292 0,-0.286776 0.0521,-0.56054 0.15644,-0.821292 0.11732,-0.260702 0.27376,-0.488839 0.46931,-0.68441 0.19554,-0.19552 0.41716,-0.345438 0.66485,-0.449756 0.26073,-0.117301 0.53449,-0.175964 0.8213,-0.175991 0.28679,2.7e-5 0.56055,0.05869 0.82129,0.175991 0.26072,0.104318 0.48886,0.254236 0.68441,0.449756 0.19554,0.195571 0.34546,0.423708 0.44975,0.68441 0.11732,0.260752 0.17599,0.534516 0.176,0.821292 m -0.19555,23.015738 3.14829,0.488865 0,0.879956 -9.52308,0 0,-0.879956 3.12873,-0.488865 0,-15.643662 -2.60076,-0.488865 0,-0.879956 5.84682,0 0,17.012483"
       style="fill:#00000c;font-family:Liberation Serif;-inkscape-font-specification:Liberation Serif"
       id="path3069" />
    <path
       d="m 291.83814,36.758289 3.14829,0.488865 0,0.879956 -9.52308,0 0,-0.879956 3.12874,-0.488865 0,-25.068969 -3.12874,-0.469309 0,-0.879956 6.37479,0 0,26.418234"
       style="fill:#00000c;font-family:Liberation Serif;-inkscape-font-specification:Liberation Serif"
       id="path3071" />
    <path
       d="m 304.86149,19.33516 c 0.83432,1.9e-5 1.60998,0.07824 2.32699,0.234655 0.71699,0.156455 1.33622,0.423701 1.85769,0.801738 0.52144,0.378072 0.92557,0.893009 1.21238,1.544812 0.29982,0.638798 0.44974,1.447053 0.44976,2.424767 l 0,12.417157 2.28788,0.488865 0,0.879956 -5.04508,0 -0.37154,-1.838131 c -0.19555,0.195548 -0.4628,0.423684 -0.80173,0.68441 -0.32592,0.260729 -0.72353,0.50842 -1.19283,0.743074 -0.46932,0.221619 -1.01685,0.410647 -1.64259,0.567083 -0.61271,0.156436 -1.29712,0.234655 -2.05323,0.234655 -0.88648,0 -1.63607,-0.136882 -2.24877,-0.410646 -0.59968,-0.273764 -1.08203,-0.651819 -1.44704,-1.134166 -0.36502,-0.495381 -0.62575,-1.075499 -0.78219,-1.740357 -0.15643,-0.677888 -0.23465,-1.407925 -0.23465,-2.190113 0,-0.80825 0.0978,-1.505696 0.29332,-2.09234 0.19554,-0.599665 0.46931,-1.101566 0.82129,-1.505702 0.35198,-0.404119 0.76263,-0.730028 1.23194,-0.977729 0.48234,-0.260718 0.99728,-0.462781 1.54481,-0.606192 0.56056,-0.14339 1.1472,-0.241162 1.75991,-0.293318 0.62574,-0.05213 1.25149,-0.08473 1.87724,-0.09777 l 2.7572,-0.07822 0,-2.874523 c -10e-6,-0.547514 -0.0456,-1.042896 -0.13689,-1.486148 -0.0913,-0.456257 -0.2477,-0.847349 -0.4693,-1.173274 -0.2086,-0.325893 -0.4954,-0.580102 -0.86041,-0.762629 -0.36502,-0.182492 -0.8213,-0.273746 -1.36882,-0.273764 -0.62575,1.8e-5 -1.25802,0.08475 -1.89679,0.25421 -0.63879,0.16949 -1.19935,0.391108 -1.68169,0.664855 l -0.66486,2.287886 -1.09506,0 0,-4.008688 c 0.84736,-0.182492 1.7208,-0.338928 2.62032,-0.46931 0.91254,-0.143382 1.89678,-0.215082 2.95274,-0.215101 m 2.60076,9.425307 -2.56165,0.07822 c -0.76916,0.02608 -1.43401,0.1043 -1.99457,0.234655 -0.56057,0.117336 -1.02336,0.325918 -1.38837,0.625747 -0.36503,0.299844 -0.63879,0.71049 -0.8213,1.231938 -0.18251,0.521462 -0.27377,1.186317 -0.27376,1.994567 -10e-6,2.294407 0.93209,3.441607 2.7963,3.441606 0.88647,10e-7 1.6491,-0.09777 2.28789,-0.293319 0.65181,-0.20858 1.30363,-0.469307 1.95546,-0.782183 l 0,-6.531229"
       style="fill:#00000c;font-family:Liberation Serif;-inkscape-font-specification:Liberation Serif"
       id="path3073" />
    <path
       d="m 328.50297,28.428039 c -1e-5,-1.3297 -0.12386,-2.44431 -0.37154,-3.343833 -0.23467,-0.912533 -0.58013,-1.649088 -1.03639,-2.209667 -0.44325,-0.560549 -0.98426,-0.958158 -1.62303,-1.192829 -0.62576,-0.247675 -1.3232,-0.371521 -2.09234,-0.371537 -0.31288,1.6e-5 -0.65183,0.01305 -1.01684,0.03911 -0.35199,0.02609 -0.70397,0.07172 -1.05594,0.136882 -0.35199,0.05216 -0.69094,0.117344 -1.01684,0.195546 -0.32592,0.07823 -0.6062,0.169489 -0.84085,0.273764 l 0,14.56816 c 0.54752,0.104293 1.17327,0.182511 1.87724,0.234655 0.70396,0.05215 1.38837,0.07822 2.05323,0.07822 1.79901,2e-6 3.10265,-0.703962 3.91092,-2.111894 0.80824,-1.407925 1.21237,-3.506781 1.21238,-6.296574 m -12.29983,-16.738719 -2.67898,-0.469309 0,-0.879956 5.92504,0 0,6.570338 c -1e-5,0.247712 -0.007,0.534512 -0.0196,0.860401 -10e-6,0.312893 -0.007,0.645321 -0.0196,0.997284 0,0.338965 -0.013,0.684428 -0.0391,1.036392 -0.013,0.338964 -0.0261,0.664873 -0.0391,0.977729 0.58663,-0.456256 1.29712,-0.821274 2.13145,-1.095056 0.84736,-0.286782 1.77946,-0.430182 2.79631,-0.430201 2.50297,1.9e-5 4.41932,0.762647 5.74904,2.287886 1.34273,1.512235 2.01411,3.806637 2.01412,6.883211 -10e-6,1.551338 -0.16949,2.952748 -0.50841,4.204234 -0.33897,1.238461 -0.86042,2.294407 -1.56437,3.167842 -0.70398,0.873439 -1.59697,1.544812 -2.67898,2.014121 -1.06899,0.46931 -2.34004,0.703965 -3.81314,0.703965 -0.62576,0 -1.26454,-0.03911 -1.91635,-0.117327 -0.63879,-0.06518 -1.27105,-0.156437 -1.89679,-0.273764 -0.62576,-0.117328 -1.23195,-0.25421 -1.81858,-0.410647 -0.58664,-0.169472 -1.12765,-0.351981 -1.62303,-0.547528 l 0,-25.479615"
       style="fill:#00000c;font-family:Liberation Serif;-inkscape-font-specification:Liberation Serif"
       id="path3075" />
    <path
       d="m 340.72459,36.758289 3.14829,0.488865 0,0.879956 -9.52308,0 0,-0.879956 3.12873,-0.488865 0,-25.068969 -3.12873,-0.469309 0,-0.879956 6.37479,0 0,26.418234"
       style="fill:#00000c;font-family:Liberation Serif;-inkscape-font-specification:Liberation Serif"
       id="path3077" />
    <path
       d="m 349.73924,28.877794 0,0.351983 c 0,0.951664 0.0652,1.86421 0.19555,2.737641 0.14339,0.873443 0.41716,1.649107 0.82129,2.326994 0.41716,0.664859 0.99728,1.19935 1.74036,1.603476 0.74306,0.391093 1.72079,0.586639 2.93319,0.586637 0.39108,2e-6 0.80172,-0.01303 1.23193,-0.03911 0.43019,-0.03911 0.86039,-0.08474 1.29061,-0.136882 0.43018,-0.05214 0.84735,-0.110808 1.25149,-0.175991 0.40411,-0.06518 0.77565,-0.13688 1.11461,-0.215101 l 0,1.095057 c -0.29985,0.195546 -0.66487,0.384574 -1.09506,0.567082 -0.41717,0.169474 -0.87997,0.32591 -1.38837,0.46931 -0.50843,0.1434 -1.04944,0.25421 -1.62303,0.332428 -0.57361,0.09125 -1.15373,0.136882 -1.74036,0.136882 -1.52526,0 -2.81586,-0.208582 -3.8718,-0.625746 -1.04292,-0.417164 -1.89028,-1.036392 -2.5421,-1.857685 -0.65182,-0.82129 -1.12113,-1.838127 -1.40793,-3.050514 -0.2868,-1.212378 -0.4302,-2.60727 -0.4302,-4.18468 0,-3.206938 0.67137,-5.599113 2.01412,-7.17653 1.34274,-1.577385 3.25909,-2.366085 5.74905,-2.366104 0.97772,1.9e-5 1.89026,0.130383 2.73764,0.391092 0.86039,0.260745 1.60998,0.697464 2.24877,1.310156 0.63877,0.612727 1.14067,1.434018 1.50571,2.463877 0.37804,1.029888 0.56706,2.313971 0.56708,3.852252 l 0,1.603475 -11.30255,0 m 4.24335,-8.056486 c -0.73005,1.8e-5 -1.36231,0.156454 -1.8968,0.46931 -0.52146,0.299853 -0.95818,0.730054 -1.31015,1.290602 -0.33896,0.56058 -0.59316,1.244989 -0.76263,2.053231 -0.15644,0.795232 -0.23466,1.688224 -0.23466,2.678977 l 7.86094,0 c -1e-5,-0.990753 -0.0587,-1.883745 -0.17599,-2.678977 -0.1043,-0.808242 -0.29985,-1.492651 -0.58664,-2.053231 -0.27377,-0.560548 -0.64531,-0.990749 -1.11461,-1.290602 -0.46932,-0.312856 -1.06247,-0.469292 -1.77946,-0.46931"
       style="fill:#00000c;font-family:Liberation Serif;-inkscape-font-specification:Liberation Serif"
       id="path3079" />
    <path
       d="m 390.92117,28.838685 c -2e-5,3.115702 -0.69746,5.507877 -2.09234,7.17653 -1.39491,1.668658 -3.56546,2.502986 -6.51167,2.502986 -2.76372,0 -4.84954,-0.82781 -6.25747,-2.483431 -1.40793,-1.655617 -2.11189,-4.05431 -2.11189,-7.196085 0,-3.102647 0.70396,-5.475267 2.11189,-7.117866 1.40793,-1.642567 3.54589,-2.463858 6.4139,-2.463877 2.78978,1.9e-5 4.89515,0.808274 6.31613,2.424768 1.42095,1.60349 2.13143,3.989146 2.13145,7.156975 m -3.51982,0 c -2e-5,-1.264519 -0.0847,-2.392165 -0.25421,-3.382942 -0.16949,-1.003788 -0.45629,-1.844634 -0.8604,-2.52254 -0.39111,-0.690913 -0.91256,-1.212368 -1.56437,-1.564367 -0.65183,-0.365001 -1.45357,-0.54751 -2.40521,-0.547528 -0.9647,1.8e-5 -1.75992,0.182527 -2.38566,0.547528 -0.62576,0.351999 -1.12114,0.873454 -1.48615,1.564367 -0.36502,0.677906 -0.61923,1.518752 -0.76263,2.52254 -0.1434,0.990777 -0.2151,2.118423 -0.2151,3.382942 0,1.277574 0.0717,2.418256 0.2151,3.422051 0.1434,1.003807 0.39761,1.857689 0.76263,2.56165 0.36501,0.690931 0.86039,1.225422 1.48615,1.603475 0.62574,0.36502 1.42096,0.54753 2.38566,0.547528 0.95164,2e-6 1.75338,-0.182508 2.40521,-0.547528 0.65181,-0.378053 1.17326,-0.912544 1.56437,-1.603475 0.40411,-0.703961 0.69091,-1.557843 0.8604,-2.56165 0.16946,-1.003795 0.25419,-2.144477 0.25421,-3.422051"
       style="fill:#00000c;font-family:Liberation Serif;-inkscape-font-specification:Liberation Serif"
       id="path3081" />
    <path
       d="m 398.78212,21.231954 c 0.36501,-0.208565 0.79521,-0.430183 1.2906,-0.664855 0.50841,-0.234637 1.03638,-0.449738 1.58392,-0.645301 0.54752,-0.195528 1.09505,-0.351964 1.64259,-0.46931 0.54751,-0.130345 1.05593,-0.195527 1.52525,-0.195546 0.70395,1.9e-5 1.34926,0.09779 1.93591,0.293319 0.58662,0.195564 1.08852,0.508437 1.5057,0.938619 0.43018,0.430218 0.76261,0.990782 0.99728,1.681694 0.24768,0.690944 0.37152,1.525272 0.37154,2.502986 l 0,12.084729 2.22922,0.488865 0,0.879956 -7.9196,0 0,-0.879956 2.44432,-0.488865 0,-11.732747 c -10e-6,-1.082005 -0.26726,-1.92937 -0.80174,-2.542095 -0.52147,-0.62573 -1.33624,-0.938603 -2.44432,-0.938619 -0.36503,1.6e-5 -0.7496,0.01957 -1.15372,0.05866 -0.40414,0.03913 -0.80175,0.08475 -1.19283,0.136882 -0.3911,0.05216 -0.76264,0.117344 -1.11461,0.195546 -0.33895,0.0652 -0.62575,0.123862 -0.8604,0.175991 l 0,14.646379 2.48343,0.488865 0,0.879956 -7.93916,0 0,-0.879956 2.20967,-0.488865 0,-15.643662 -2.20967,-0.488865 0,-0.879956 5.24063,0 0.17599,1.486148"
       style="fill:#00000c;font-family:Liberation Serif;-inkscape-font-specification:Liberation Serif"
       id="path3083" />
    <path
       d="m 437.61751,38.518201 c -2.13798,0 -4.04781,-0.299837 -5.7295,-0.89951 -1.66866,-0.599673 -3.08311,-1.466592 -4.24334,-2.600759 -1.1472,-1.134162 -2.02064,-2.516017 -2.62031,-4.145571 -0.59968,-1.642575 -0.89951,-3.49374 -0.89951,-5.5535 0,-2.346534 0.29983,-4.380208 0.89951,-6.101028 0.61271,-1.720782 1.49266,-3.141747 2.63987,-4.262898 1.16023,-1.134141 2.58119,-1.974987 4.26289,-2.522541 1.68169,-0.547502 3.60455,-0.821265 5.7686,-0.821292 0.8995,2.7e-5 1.74686,0.03262 2.5421,0.09777 0.7952,0.05217 1.55131,0.123872 2.26833,0.2151 0.73002,0.09128 1.42095,0.195572 2.07279,0.312874 0.65179,0.117353 1.28406,0.241198 1.89679,0.371537 l 0.11733,5.729491 -1.2906,0 -0.58664,-3.402497 c -0.91257,-0.560541 -1.97503,-0.990741 -3.1874,-1.290602 -1.19936,-0.312848 -2.42478,-0.469285 -3.67626,-0.46931 -1.52527,2.5e-5 -2.88757,0.208607 -4.08691,0.625747 -1.18632,0.417188 -2.19012,1.101598 -3.0114,2.05323 -0.8213,0.938642 -1.45356,2.183615 -1.89679,3.734925 -0.43021,1.53831 -0.64531,3.435102 -0.64531,5.690382 0,1.981541 0.2151,3.708861 0.64531,5.181963 0.43019,1.460081 1.04942,2.678982 1.85768,3.656706 0.80825,0.964696 1.79249,1.688214 2.95274,2.170558 1.17326,0.482348 2.50297,0.723521 3.98914,0.72352 0.80824,1e-6 1.57738,-0.05214 2.30744,-0.156437 0.74305,-0.10429 1.42746,-0.24769 2.05323,-0.430201 0.63876,-0.182507 1.20584,-0.391089 1.70124,-0.625746 0.5084,-0.247689 0.93208,-0.501898 1.27105,-0.762629 l 0.72352,-3.910915 1.27105,0 -0.11733,6.159692 c -0.54755,0.156437 -1.1733,0.312873 -1.87724,0.46931 -0.70398,0.1434 -1.45358,0.273764 -2.24877,0.391091 -0.79524,0.117327 -1.62957,0.208582 -2.50299,0.273764 -0.87345,0.06518 -1.74689,0.09777 -2.62031,0.09777"
       style="fill:#00000c;font-family:Liberation Serif;-inkscape-font-specification:Liberation Serif"
       id="path3085" />
    <path
       d="m 454.96243,24.986433 c -10e-6,1.825106 0.13687,3.474207 0.41064,4.947308 0.27376,1.473119 0.74307,2.731129 1.40793,3.774034 0.66485,1.042914 1.55784,1.851169 2.67898,2.424768 1.12112,0.560566 2.52904,0.840848 4.22379,0.840846 1.69471,2e-6 3.10264,-0.28028 4.22379,-0.840846 1.12111,-0.573599 2.0141,-1.381854 2.67897,-2.424768 0.67787,-1.042905 1.1537,-2.300915 1.42749,-3.774034 0.27374,-1.473101 0.41062,-3.122202 0.41064,-4.947308 -2e-5,-1.812042 -0.1369,-3.448107 -0.41064,-4.908199 -0.27379,-1.460055 -0.74962,-2.698511 -1.42749,-3.71537 -0.66487,-1.029851 -1.55786,-1.818552 -2.67897,-2.366103 -1.12115,-0.547504 -2.52908,-0.821268 -4.22379,-0.821293 -1.69475,2.5e-5 -3.10267,0.273789 -4.22379,0.821293 -1.12114,0.547551 -2.01413,1.336252 -2.67898,2.366103 -0.66486,1.016859 -1.13417,2.255315 -1.40793,3.71537 -0.27377,1.460092 -0.41065,3.096157 -0.41064,4.908199 m -4.08691,0 c 0,-2.320461 0.28028,-4.321544 0.84085,-6.003255 0.57359,-1.681673 1.4014,-3.070047 2.48343,-4.165125 1.08201,-1.095032 2.41824,-1.903287 4.00869,-2.424768 1.59042,-0.521429 3.41552,-0.782156 5.47528,-0.782183 1.99455,2.7e-5 3.78053,0.260754 5.35795,0.782183 1.59042,0.521481 2.93968,1.329736 4.0478,2.424768 1.10807,1.095078 1.95543,2.483452 2.54209,4.165125 0.58661,1.681711 0.87993,3.682794 0.87996,6.003255 -3e-5,2.320488 -0.29335,4.334607 -0.87996,6.042365 -0.58666,1.694735 -1.43402,3.096145 -2.54209,4.204234 -1.10812,1.108095 -2.45738,1.935904 -4.0478,2.483431 -1.57742,0.534492 -3.3634,0.801738 -5.35795,0.801738 -1.99458,0 -3.78056,-0.267246 -5.35796,-0.801738 -1.57741,-0.547527 -2.92015,-1.375336 -4.02824,-2.483431 -1.1081,-1.108089 -1.95546,-2.509499 -2.54209,-4.204234 -0.58664,-1.707758 -0.87996,-3.721877 -0.87996,-6.042365"
       style="fill:#00000c;font-family:Liberation Serif;-inkscape-font-specification:Liberation Serif"
       id="path3087" />
    <path
       d="m 506.64517,11.904421 0,1.036392 -2.87453,0.508419 -10.53992,25.284069 -0.99728,0 -10.65724,-25.284069 -2.95274,-0.508419 0,-1.036392 10.59858,0 0,1.036392 -3.51983,0.508419 7.93916,19.300369 7.9196,-19.300369 -3.4416,-0.508419 0,-1.036392 8.5258,0"
       style="fill:#00000c;font-family:Liberation Serif;-inkscape-font-specification:Liberation Serif"
       id="path3089" />
    <path
       d="m 510.96674,37.090717 0,1.036393 -8.62357,0 0,-1.036393 2.9723,-0.527974 8.93644,-24.873423 3.71537,0 9.28842,24.873423 3.32428,0.527974 0,1.036393 -11.08744,0 0,-1.036393 3.51982,-0.527974 -2.60076,-7.567621 -10.32481,0 -2.63987,7.567621 3.51982,0.527974 m 4.20424,-22.585537 -4.49756,12.73003 9.13199,0 -4.63443,-12.73003"
       style="fill:#00000c;font-family:Liberation Serif;-inkscape-font-specification:Liberation Serif"
       id="path3091" />
    <path
       d="m 539.18399,26.629018 0,9.933725 3.96958,0.527974 0,1.036393 -10.85279,0 0,-1.036393 3.10917,-0.527974 0,-23.113511 -3.36338,-0.508419 0,-1.036392 11.3221,0 c 1.83811,2.6e-5 3.36989,0.162981 4.59532,0.488864 1.23844,0.325935 2.22921,0.795245 2.9723,1.40793 0.74305,0.599697 1.27103,1.329734 1.58392,2.190112 0.31285,0.860423 0.46929,1.831633 0.46931,2.913633 -2e-5,1.003819 -0.14994,1.903329 -0.44976,2.698531 -0.28682,0.782199 -0.67791,1.473127 -1.17327,2.072786 -0.4954,0.599687 -1.069,1.101587 -1.7208,1.505702 -0.65184,0.391104 -1.32973,0.690941 -2.03368,0.899511 l 7.09831,10.481253 2.83542,0.527974 0,1.036393 -6.27702,0 -7.37208,-11.498092 -4.71265,0 m 9.91417,-7.450294 c -2e-5,-1.042891 -0.12387,-1.916328 -0.37154,-2.620314 -0.24771,-0.703942 -0.6388,-1.271024 -1.17327,-1.701248 -0.52147,-0.430177 -1.19937,-0.736532 -2.03368,-0.919065 -0.82131,-0.182485 -1.81859,-0.27374 -2.99185,-0.273764 l -3.34383,0 0,11.204773 3.46116,0 c 1.19933,1.3e-5 2.20965,-0.104278 3.03096,-0.312873 0.82127,-0.221605 1.48613,-0.560551 1.99456,-1.016838 0.50841,-0.469295 0.87342,-1.06245 1.09506,-1.779467 0.2216,-0.716984 0.33241,-1.577385 0.33243,-2.581204"
       style="fill:#00000c;font-family:Liberation Serif;-inkscape-font-specification:Liberation Serif"
       id="path3093" />
    <path
       d="m 558.79724,37.090717 3.36339,-0.527974 0,-23.113511 -3.36339,-0.508419 0,-1.036392 19.6719,0 0,6.277019 -1.2906,0 -0.62575,-4.243343 c -0.41718,-0.05212 -0.9256,-0.09775 -1.52525,-0.136882 -0.58666,-0.03908 -1.18633,-0.06516 -1.79902,-0.07822 -0.61273,-0.02605 -1.19285,-0.03908 -1.74036,-0.03911 -0.54754,-0.01301 -0.97122,-0.01953 -1.27105,-0.01955 l -4.28245,0 0,10.246598 7.07876,0 0.60619,-3.128732 1.25149,0 0,8.056486 -1.25149,0 -0.60619,-3.167842 -7.07876,0 0,10.696355 5.16241,0 c 0.80824,10e-7 1.57087,-0.0065 2.28788,-0.01956 0.71699,-0.02607 1.36229,-0.05214 1.93591,-0.07822 0.57358,-0.02607 1.06244,-0.05866 1.46659,-0.09777 0.41714,-0.03911 0.7235,-0.07822 0.91906,-0.117328 l 1.11462,-4.849535 1.2906,0 -0.37154,6.922321 -20.94295,0 0,-1.036393"
       style="fill:#00000c;font-family:Liberation Serif;-inkscape-font-specification:Liberation Serif"
       id="path3095" />
    <path
       d="m 598.90365,19.667588 c -2e-5,-1.042891 -0.11735,-1.942401 -0.35199,-2.698532 -0.22163,-0.756088 -0.59317,-1.375316 -1.11461,-1.857685 -0.50843,-0.495359 -1.1798,-0.860377 -2.01412,-1.095056 -0.83434,-0.23463 -1.86421,-0.351958 -3.08962,-0.351982 l -1.91635,0 0,12.417157 2.03367,0 c 1.22541,1.2e-5 2.24877,-0.143388 3.07007,-0.430201 0.83432,-0.299824 1.49917,-0.723506 1.99457,-1.271048 0.5084,-0.547514 0.8669,-1.218887 1.0755,-2.014121 0.20857,-0.795203 0.31286,-1.694713 0.31288,-2.698532 m -8.48669,8.173814 0,8.721341 4.16512,0.527974 0,1.036393 -11.04833,0 0,-1.036393 3.10918,-0.527974 0,-23.113511 -3.36339,-0.508419 0,-1.036392 9.89461,0 c 1.83812,2.6e-5 3.3699,0.20209 4.59533,0.606192 1.23844,0.391116 2.2292,0.938644 2.9723,1.642584 0.74305,0.690952 1.27102,1.505725 1.58392,2.444322 0.31285,0.938641 0.46929,1.94896 0.46931,3.03096 -2e-5,1.069001 -0.15646,2.098874 -0.46931,3.089623 -0.29986,0.99078 -0.8148,1.864217 -1.54482,2.620314 -0.71701,0.756122 -1.68171,1.362313 -2.89407,1.818575 -1.2124,0.456284 -2.7181,0.684421 -4.51711,0.684411 l -2.95274,0"
       style="fill:#00000c;font-family:Liberation Serif;-inkscape-font-specification:Liberation Serif"
       id="path3097" />
  </g>
  <g
     transform="matrix(2.7290192,0,0,-2.7290192,613.7584,78.22548)"
     id="g4426">
    <g
       transform="scale(0.1,0.1)"
       id="g4428">
      <path
         d="M 0,0 250,0 250,250 0,250 0,0 z"
         id="path4430"
         style="fill:#ffffff;fill-opacity:1;fill-rule:nonzero;stroke:none"
         inkscape:connector-curvature="0" />
      <path
         d="M 0,0 10,0 10,10 0,10 0,0 m 10,0 10,0 0,10 -10,0 0,-10 m 10,0 10,0 0,10 -10,0 0,-10 m 10,0 10,0 0,10 -10,0 0,-10 m 10,0 10,0 0,10 -10,0 0,-10 m 10,0 10,0 0,10 -10,0 0,-10 m 10,0 10,0 0,10 -10,0 0,-10 m 20,0 10,0 0,10 -10,0 0,-10 m 10,0 10,0 0,10 -10,0 0,-10 m 20,0 10,0 0,10 -10,0 0,-10 m 10,0 10,0 0,10 -10,0 0,-10 m 10,0 10,0 0,10 -10,0 0,-10 m 10,0 10,0 0,10 -10,0 0,-10 m 50,0 10,0 0,10 -10,0 0,-10 m 10,0 10,0 0,10 -10,0 0,-10 m 10,0 10,0 0,10 -10,0 0,-10 m 10,0 10,0 0,10 -10,0 0,-10 m 10,0 10,0 0,10 -10,0 0,-10 m 10,0 10,0 0,10 -10,0 0,-10 M 0,10 10,10 10,20 0,20 0,10 m 60,0 10,0 0,10 -10,0 0,-10 m 20,0 10,0 0,10 -10,0 0,-10 m 10,0 10,0 0,10 -10,0 0,-10 m 20,0 10,0 0,10 -10,0 0,-10 m 30,0 10,0 0,10 -10,0 0,-10 m 10,0 10,0 0,10 -10,0 0,-10 m 10,0 10,0 0,10 -10,0 0,-10 m 20,0 10,0 0,10 -10,0 0,-10 m 10,0 10,0 0,10 -10,0 0,-10 m 10,0 10,0 0,10 -10,0 0,-10 m 10,0 10,0 0,10 -10,0 0,-10 m 30,0 10,0 0,10 -10,0 0,-10 M 0,20 10,20 10,30 0,30 0,20 m 20,0 10,0 0,10 -10,0 0,-10 m 10,0 10,0 0,10 -10,0 0,-10 m 10,0 10,0 0,10 -10,0 0,-10 m 20,0 10,0 0,10 -10,0 0,-10 m 20,0 10,0 0,10 -10,0 0,-10 m 10,0 10,0 0,10 -10,0 0,-10 m 10,0 10,0 0,10 -10,0 0,-10 m 70,0 10,0 0,10 -10,0 0,-10 m 20,0 10,0 0,10 -10,0 0,-10 m 30,0 10,0 0,10 -10,0 0,-10 m 20,0 10,0 0,10 -10,0 0,-10 M 0,30 10,30 10,40 0,40 0,30 m 20,0 10,0 0,10 -10,0 0,-10 m 10,0 10,0 0,10 -10,0 0,-10 m 10,0 10,0 0,10 -10,0 0,-10 m 20,0 10,0 0,10 -10,0 0,-10 m 20,0 10,0 0,10 -10,0 0,-10 m 30,0 10,0 0,10 -10,0 0,-10 m 10,0 10,0 0,10 -10,0 0,-10 m 10,0 10,0 0,10 -10,0 0,-10 m 40,0 10,0 0,10 -10,0 0,-10 m 10,0 10,0 0,10 -10,0 0,-10 m 20,0 10,0 0,10 -10,0 0,-10 m 20,0 10,0 0,10 -10,0 0,-10 M 0,40 10,40 10,50 0,50 0,40 m 20,0 10,0 0,10 -10,0 0,-10 m 10,0 10,0 0,10 -10,0 0,-10 m 10,0 10,0 0,10 -10,0 0,-10 m 20,0 10,0 0,10 -10,0 0,-10 m 20,0 10,0 0,10 -10,0 0,-10 m 30,0 10,0 0,10 -10,0 0,-10 m 10,0 10,0 0,10 -10,0 0,-10 m 10,0 10,0 0,10 -10,0 0,-10 m 10,0 10,0 0,10 -10,0 0,-10 m 10,0 10,0 0,10 -10,0 0,-10 m 10,0 10,0 0,10 -10,0 0,-10 m 10,0 10,0 0,10 -10,0 0,-10 m 10,0 10,0 0,10 -10,0 0,-10 m 10,0 10,0 0,10 -10,0 0,-10 m 10,0 10,0 0,10 -10,0 0,-10 m 10,0 10,0 0,10 -10,0 0,-10 m 10,0 10,0 0,10 -10,0 0,-10 m 20,0 10,0 0,10 -10,0 0,-10 M 0,50 10,50 10,60 0,60 0,50 m 60,0 10,0 0,10 -10,0 0,-10 m 50,0 10,0 0,10 -10,0 0,-10 m 50,0 10,0 0,10 -10,0 0,-10 m 40,0 10,0 0,10 -10,0 0,-10 m 10,0 10,0 0,10 -10,0 0,-10 m 30,0 10,0 0,10 -10,0 0,-10 M 0,60 10,60 10,70 0,70 0,60 m 10,0 10,0 0,10 -10,0 0,-10 m 10,0 10,0 0,10 -10,0 0,-10 m 10,0 10,0 0,10 -10,0 0,-10 m 10,0 10,0 0,10 -10,0 0,-10 m 10,0 10,0 0,10 -10,0 0,-10 m 10,0 10,0 0,10 -10,0 0,-10 m 20,0 10,0 0,10 -10,0 0,-10 m 50,0 10,0 0,10 -10,0 0,-10 m 10,0 10,0 0,10 -10,0 0,-10 m 20,0 10,0 0,10 -10,0 0,-10 m 20,0 10,0 0,10 -10,0 0,-10 m 20,0 10,0 0,10 -10,0 0,-10 m 10,0 10,0 0,10 -10,0 0,-10 m 10,0 10,0 0,10 -10,0 0,-10 m 10,0 10,0 0,10 -10,0 0,-10 m 10,0 10,0 0,10 -10,0 0,-10 m -160,10 10,0 0,10 -10,0 0,-10 m 10,0 10,0 0,10 -10,0 0,-10 m 10,0 10,0 0,10 -10,0 0,-10 m 10,0 10,0 0,10 -10,0 0,-10 m 20,0 10,0 0,10 -10,0 0,-10 m 30,0 10,0 0,10 -10,0 0,-10 m 40,0 10,0 0,10 -10,0 0,-10 m 10,0 10,0 0,10 -10,0 0,-10 m 10,0 10,0 0,10 -10,0 0,-10 M 0,80 10,80 10,90 0,90 0,80 m 20,0 10,0 0,10 -10,0 0,-10 m 10,0 10,0 0,10 -10,0 0,-10 m 10,0 10,0 0,10 -10,0 0,-10 m 20,0 10,0 0,10 -10,0 0,-10 m 10,0 10,0 0,10 -10,0 0,-10 m 20,0 10,0 0,10 -10,0 0,-10 m 30,0 10,0 0,10 -10,0 0,-10 m 10,0 10,0 0,10 -10,0 0,-10 m 20,0 10,0 0,10 -10,0 0,-10 m 10,0 10,0 0,10 -10,0 0,-10 m 10,0 10,0 0,10 -10,0 0,-10 m 10,0 10,0 0,10 -10,0 0,-10 m 10,0 10,0 0,10 -10,0 0,-10 m 10,0 10,0 0,10 -10,0 0,-10 m 20,0 10,0 0,10 -10,0 0,-10 M 0,90 l 10,0 0,10 -10,0 0,-10 m 30,0 10,0 0,10 -10,0 0,-10 m 20,0 10,0 0,10 -10,0 0,-10 m 40,0 10,0 0,10 -10,0 0,-10 m 10,0 10,0 0,10 -10,0 0,-10 m 10,0 10,0 0,10 -10,0 0,-10 m 10,0 10,0 0,10 -10,0 0,-10 m 30,0 10,0 0,10 -10,0 0,-10 m 20,0 10,0 0,10 -10,0 0,-10 m 10,0 10,0 0,10 -10,0 0,-10 m 30,0 10,0 0,10 -10,0 0,-10 m 30,0 10,0 0,10 -10,0 0,-10 m -240,10 10,0 0,10 -10,0 0,-10 m 40,0 10,0 0,10 -10,0 0,-10 m 10,0 10,0 0,10 -10,0 0,-10 m 10,0 10,0 0,10 -10,0 0,-10 m 10,0 10,0 0,10 -10,0 0,-10 m 10,0 10,0 0,10 -10,0 0,-10 m 50,0 10,0 0,10 -10,0 0,-10 m 20,0 10,0 0,10 -10,0 0,-10 m 30,0 10,0 0,10 -10,0 0,-10 m 10,0 10,0 0,10 -10,0 0,-10 m 10,0 10,0 0,10 -10,0 0,-10 m 10,0 10,0 0,10 -10,0 0,-10 m 20,0 10,0 0,10 -10,0 0,-10 m 10,0 10,0 0,10 -10,0 0,-10 m -240,10 10,0 0,10 -10,0 0,-10 m 10,0 10,0 0,10 -10,0 0,-10 m 40,0 10,0 0,10 -10,0 0,-10 m 20,0 10,0 0,10 -10,0 0,-10 m 40,0 10,0 0,10 -10,0 0,-10 m 80,0 10,0 0,10 -10,0 0,-10 m 20,0 10,0 0,10 -10,0 0,-10 m 20,0 10,0 0,10 -10,0 0,-10 m -190,10 10,0 0,10 -10,0 0,-10 m 10,0 10,0 0,10 -10,0 0,-10 m 10,0 10,0 0,10 -10,0 0,-10 m 10,0 10,0 0,10 -10,0 0,-10 m 20,0 10,0 0,10 -10,0 0,-10 m 20,0 10,0 0,10 -10,0 0,-10 m 10,0 10,0 0,10 -10,0 0,-10 m 10,0 10,0 0,10 -10,0 0,-10 m 10,0 10,0 0,10 -10,0 0,-10 m 30,0 10,0 0,10 -10,0 0,-10 m 10,0 10,0 0,10 -10,0 0,-10 m 20,0 10,0 0,10 -10,0 0,-10 m 20,0 10,0 0,10 -10,0 0,-10 m 10,0 10,0 0,10 -10,0 0,-10 m 10,0 10,0 0,10 -10,0 0,-10 m -240,10 10,0 0,10 -10,0 0,-10 m 10,0 10,0 0,10 -10,0 0,-10 m 10,0 10,0 0,10 -10,0 0,-10 m 30,0 10,0 0,10 -10,0 0,-10 m 40,0 10,0 0,10 -10,0 0,-10 m 20,0 10,0 0,10 -10,0 0,-10 m 30,0 10,0 0,10 -10,0 0,-10 m 20,0 10,0 0,10 -10,0 0,-10 m 30,0 10,0 0,10 -10,0 0,-10 m 10,0 10,0 0,10 -10,0 0,-10 m 40,0 10,0 0,10 -10,0 0,-10 m -240,10 10,0 0,10 -10,0 0,-10 m 10,0 10,0 0,10 -10,0 0,-10 m 20,0 10,0 0,10 -10,0 0,-10 m 10,0 10,0 0,10 -10,0 0,-10 m 20,0 10,0 0,10 -10,0 0,-10 m 30,0 10,0 0,10 -10,0 0,-10 m 50,0 10,0 0,10 -10,0 0,-10 m 10,0 10,0 0,10 -10,0 0,-10 m 20,0 10,0 0,10 -10,0 0,-10 m 10,0 10,0 0,10 -10,0 0,-10 m 10,0 10,0 0,10 -10,0 0,-10 m 10,0 10,0 0,10 -10,0 0,-10 m 10,0 10,0 0,10 -10,0 0,-10 m 20,0 10,0 0,10 -10,0 0,-10 m 10,0 10,0 0,10 -10,0 0,-10 m -230,10 10,0 0,10 -10,0 0,-10 m 10,0 10,0 0,10 -10,0 0,-10 m 10,0 10,0 0,10 -10,0 0,-10 m 10,0 10,0 0,10 -10,0 0,-10 m 10,0 10,0 0,10 -10,0 0,-10 m 20,0 10,0 0,10 -10,0 0,-10 m 20,0 10,0 0,10 -10,0 0,-10 m 10,0 10,0 0,10 -10,0 0,-10 m 10,0 10,0 0,10 -10,0 0,-10 m 30,0 10,0 0,10 -10,0 0,-10 m 20,0 10,0 0,10 -10,0 0,-10 m 10,0 10,0 0,10 -10,0 0,-10 m 20,0 10,0 0,10 -10,0 0,-10 m 40,0 10,0 0,10 -10,0 0,-10 m -230,10 10,0 0,10 -10,0 0,-10 m 10,0 10,0 0,10 -10,0 0,-10 m 10,0 10,0 0,10 -10,0 0,-10 m 10,0 10,0 0,10 -10,0 0,-10 m 10,0 10,0 0,10 -10,0 0,-10 m 20,0 10,0 0,10 -10,0 0,-10 m 10,0 10,0 0,10 -10,0 0,-10 m 10,0 10,0 0,10 -10,0 0,-10 m 20,0 10,0 0,10 -10,0 0,-10 m 30,0 10,0 0,10 -10,0 0,-10 m 10,0 10,0 0,10 -10,0 0,-10 m 10,0 10,0 0,10 -10,0 0,-10 m 20,0 10,0 0,10 -10,0 0,-10 m 20,0 10,0 0,10 -10,0 0,-10 m 20,0 10,0 0,10 -10,0 0,-10 m 20,0 10,0 0,10 -10,0 0,-10 m -140,10 10,0 0,10 -10,0 0,-10 m 10,0 10,0 0,10 -10,0 0,-10 m 10,0 10,0 0,10 -10,0 0,-10 m 50,0 10,0 0,10 -10,0 0,-10 m -160,10 10,0 0,10 -10,0 0,-10 m 10,0 10,0 0,10 -10,0 0,-10 m 10,0 10,0 0,10 -10,0 0,-10 m 10,0 10,0 0,10 -10,0 0,-10 m 10,0 10,0 0,10 -10,0 0,-10 m 10,0 10,0 0,10 -10,0 0,-10 m 10,0 10,0 0,10 -10,0 0,-10 m 20,0 10,0 0,10 -10,0 0,-10 m 20,0 10,0 0,10 -10,0 0,-10 m 20,0 10,0 0,10 -10,0 0,-10 m 20,0 10,0 0,10 -10,0 0,-10 m 20,0 10,0 0,10 -10,0 0,-10 m 20,0 10,0 0,10 -10,0 0,-10 m 10,0 10,0 0,10 -10,0 0,-10 m 10,0 10,0 0,10 -10,0 0,-10 m 10,0 10,0 0,10 -10,0 0,-10 m 10,0 10,0 0,10 -10,0 0,-10 m 10,0 10,0 0,10 -10,0 0,-10 m 10,0 10,0 0,10 -10,0 0,-10 m -240,10 10,0 0,10 -10,0 0,-10 m 60,0 10,0 0,10 -10,0 0,-10 m 20,0 10,0 0,10 -10,0 0,-10 m 10,0 10,0 0,10 -10,0 0,-10 m 10,0 10,0 0,10 -10,0 0,-10 m 20,0 10,0 0,10 -10,0 0,-10 m 30,0 10,0 0,10 -10,0 0,-10 m 10,0 10,0 0,10 -10,0 0,-10 m 20,0 10,0 0,10 -10,0 0,-10 m 60,0 10,0 0,10 -10,0 0,-10 m -240,10 10,0 0,10 -10,0 0,-10 m 20,0 10,0 0,10 -10,0 0,-10 m 10,0 10,0 0,10 -10,0 0,-10 m 10,0 10,0 0,10 -10,0 0,-10 m 20,0 10,0 0,10 -10,0 0,-10 m 30,0 10,0 0,10 -10,0 0,-10 m 20,0 10,0 0,10 -10,0 0,-10 m 20,0 10,0 0,10 -10,0 0,-10 m 30,0 10,0 0,10 -10,0 0,-10 m 20,0 10,0 0,10 -10,0 0,-10 m 20,0 10,0 0,10 -10,0 0,-10 m 10,0 10,0 0,10 -10,0 0,-10 m 10,0 10,0 0,10 -10,0 0,-10 m 20,0 10,0 0,10 -10,0 0,-10 m -240,10 10,0 0,10 -10,0 0,-10 m 20,0 10,0 0,10 -10,0 0,-10 m 10,0 10,0 0,10 -10,0 0,-10 m 10,0 10,0 0,10 -10,0 0,-10 m 20,0 10,0 0,10 -10,0 0,-10 m 20,0 10,0 0,10 -10,0 0,-10 m 20,0 10,0 0,10 -10,0 0,-10 m 20,0 10,0 0,10 -10,0 0,-10 m 10,0 10,0 0,10 -10,0 0,-10 m 10,0 10,0 0,10 -10,0 0,-10 m 40,0 10,0 0,10 -10,0 0,-10 m 20,0 10,0 0,10 -10,0 0,-10 m 10,0 10,0 0,10 -10,0 0,-10 m 10,0 10,0 0,10 -10,0 0,-10 m 20,0 10,0 0,10 -10,0 0,-10 m -240,10 10,0 0,10 -10,0 0,-10 m 20,0 10,0 0,10 -10,0 0,-10 m 10,0 10,0 0,10 -10,0 0,-10 m 10,0 10,0 0,10 -10,0 0,-10 m 20,0 10,0 0,10 -10,0 0,-10 m 30,0 10,0 0,10 -10,0 0,-10 m 30,0 10,0 0,10 -10,0 0,-10 m 30,0 10,0 0,10 -10,0 0,-10 m 30,0 10,0 0,10 -10,0 0,-10 m 20,0 10,0 0,10 -10,0 0,-10 m 10,0 10,0 0,10 -10,0 0,-10 m 10,0 10,0 0,10 -10,0 0,-10 m 20,0 10,0 0,10 -10,0 0,-10 m -240,10 10,0 0,10 -10,0 0,-10 m 60,0 10,0 0,10 -10,0 0,-10 m 20,0 10,0 0,10 -10,0 0,-10 m 60,0 10,0 0,10 -10,0 0,-10 m 10,0 10,0 0,10 -10,0 0,-10 m 10,0 10,0 0,10 -10,0 0,-10 m 20,0 10,0 0,10 -10,0 0,-10 m 60,0 10,0 0,10 -10,0 0,-10 m -240,10 10,0 0,10 -10,0 0,-10 m 10,0 10,0 0,10 -10,0 0,-10 m 10,0 10,0 0,10 -10,0 0,-10 m 10,0 10,0 0,10 -10,0 0,-10 m 10,0 10,0 0,10 -10,0 0,-10 m 10,0 10,0 0,10 -10,0 0,-10 m 10,0 10,0 0,10 -10,0 0,-10 m 30,0 10,0 0,10 -10,0 0,-10 m 10,0 10,0 0,10 -10,0 0,-10 m 10,0 10,0 0,10 -10,0 0,-10 m 30,0 10,0 0,10 -10,0 0,-10 m 20,0 10,0 0,10 -10,0 0,-10 m 20,0 10,0 0,10 -10,0 0,-10 m 10,0 10,0 0,10 -10,0 0,-10 m 10,0 10,0 0,10 -10,0 0,-10 m 10,0 10,0 0,10 -10,0 0,-10 m 10,0 10,0 0,10 -10,0 0,-10 m 10,0 10,0 0,10 -10,0 0,-10 m 10,0 10,0 0,10 -10,0 0,-10"
         id="path4432"
         style="fill:#000000;fill-opacity:1;fill-rule:nonzero;stroke:none"
         inkscape:connector-curvature="0" />
    </g>
  </g>
</svg>
